<?xml version="1.0" encoding="utf-8"?>
<!-- Generator: Adobe Illustrator 24.1.1, SVG Export Plug-In . SVG Version: 6.00 Build 0)  -->
<svg version="1.1" id="Layer_1" xmlns="http://www.w3.org/2000/svg" xmlns:xlink="http://www.w3.org/1999/xlink" x="0px" y="0px"
	 viewBox="0 0 512 512" style="enable-background:new 0 0 512 512;" xml:space="preserve">
<style type="text/css">
	.st0{fill:#395185;}
	.st1{fill:#FFFFFF;}
</style>
<g>
	<path class="st0" d="M483.7,512c15.6,0,28.3-12.7,28.3-28.3V28.3C512,12.7,499.3,0,483.7,0H28.3C12.6,0,0,12.7,0,28.3v455.5
		C0,499.3,12.6,512,28.3,512H483.7"/>
	<path class="st1" d="M353.3,512V313.7h66.6l10-77.3h-76.5v-49.3c0-22.4,6.2-37.6,38.3-37.6l40.9,0V80.4c-7.1-0.9-31.4-3-59.6-3
		c-59,0-99.4,36-99.4,102.1v57h-66.7v77.3h66.7V512H353.3"/>
</g>
</svg>
