<?xml version="1.0" standalone="no"?>
<!DOCTYPE svg PUBLIC "-//W3C//DTD SVG 20010904//EN"
 "http://www.w3.org/TR/2001/REC-SVG-20010904/DTD/svg10.dtd">
<svg version="1.0" xmlns="http://www.w3.org/2000/svg"
 width="400.000000pt" height="400.000000pt" viewBox="0 0 400.000000 400.000000"
 preserveAspectRatio="xMidYMid meet">
<metadata>
Created by potrace 1.16, written by Peter Selinger 2001-2019
</metadata>
<g transform="translate(0.000000,400.000000) scale(0.100000,-0.100000)"
fill="#1db954" stroke="#1db954">
<path d="M1785 3978 c-44 -5 -118 -17 -165 -26 -101 -20 -99 -14 -34 -146 109
-219 221 -353 634 -758 177 -172 371 -369 433 -437 506 -557 742 -1030 856
-1710 l28 -164 41 52 c23 29 42 63 42 76 0 29 -123 825 -150 970 -61 323 -143
546 -278 751 -95 145 -152 207 -562 614 -412 409 -488 497 -599 694 l-54 96
-56 -1 c-31 -1 -92 -6 -136 -11z"/>
<path d="M2063 3976 c14 -36 87 -154 139 -223 97 -131 238 -281 457 -488 422
-398 566 -567 683 -799 125 -249 169 -426 278 -1136 27 -179 52 -341 56 -360
l6 -34 32 53 c18 29 48 85 67 123 l34 70 -28 136 c-171 834 -415 1457 -750
1912 -94 127 -157 200 -313 360 -134 137 -205 233 -226 302 -9 32 -17 40 -47
48 -54 14 -215 38 -310 46 -77 6 -84 5 -78 -10z"/>
<path d="M1342 3876 c-51 -18 -97 -37 -102 -42 -5 -5 -3 -39 5 -79 36 -185
126 -350 292 -537 81 -92 176 -178 423 -387 221 -186 399 -362 543 -536 392
-472 665 -1006 813 -1592 21 -82 39 -150 41 -152 2 -3 28 20 58 49 66 65 66
63 29 282 -84 499 -235 880 -501 1264 -163 235 -336 427 -738 820 -173 169
-349 347 -392 395 -152 175 -256 331 -315 474 -21 49 -37 75 -47 74 -9 0 -58
-15 -109 -33z"/>
<path d="M2575 3879 c37 -70 80 -122 238 -286 213 -221 322 -363 466 -607 215
-365 399 -873 531 -1461 22 -99 43 -191 46 -205 6 -22 9 -18 26 30 11 30 32
104 48 164 l28 109 -20 71 c-52 183 -249 705 -391 1031 -164 377 -438 923
-480 958 -40 32 -314 164 -398 192 -46 15 -90 30 -98 33 -10 4 -9 -4 4 -29z"/>
<path d="M1086 3764 c-87 -45 -146 -82 -146 -92 0 -4 9 -43 19 -87 54 -225
172 -452 344 -664 90 -111 295 -313 522 -516 110 -98 249 -226 308 -284 448
-436 784 -970 986 -1567 28 -80 52 -149 55 -152 3 -2 30 14 61 38 36 28 55 50
55 64 0 11 -11 68 -25 126 -144 595 -431 1165 -823 1635 -120 143 -362 377
-562 544 -344 287 -523 488 -625 704 -40 85 -85 226 -85 269 0 24 -4 23 -84
-18z"/>
<path d="M819 3597 c-128 -97 -132 -101 -124 -143 25 -135 132 -374 244 -546
145 -222 325 -417 853 -921 325 -311 499 -513 692 -802 168 -251 292 -487 406
-772 32 -79 61 -147 64 -150 6 -6 142 72 151 87 3 5 -15 72 -40 150 -111 340
-274 671 -479 975 -193 286 -406 519 -801 875 -573 517 -772 782 -879 1172
l-32 116 -55 -41z"/>
<path d="M3221 3564 c2 -5 50 -99 105 -209 224 -441 431 -929 599 -1409 61
-174 65 -171 65 55 0 545 -220 1060 -614 1436 -90 86 -163 146 -155 127z"/>
<path d="M536 3338 c-66 -71 -86 -98 -81 -113 13 -45 17 -572 6 -785 -9 -181
-64 -953 -85 -1187 -2 -29 -3 -53 0 -53 2 0 41 26 86 58 46 33 93 64 104 70
18 9 23 24 29 79 4 37 26 217 50 398 74 559 79 612 79 930 0 325 -10 425 -65
594 -17 53 -32 97 -33 99 -2 1 -43 -39 -90 -90z"/>
<path d="M354 3110 c-17 -25 -53 -83 -79 -129 l-49 -85 -2 -240 c-3 -346 -43
-624 -133 -920 l-39 -129 28 -106 c16 -58 38 -132 49 -164 30 -85 102 -247
110 -247 4 0 19 12 34 28 25 26 27 37 37 167 6 77 24 313 40 525 16 212 34
468 40 570 11 209 13 674 2 735 l-7 40 -31 -45z"/>
<path d="M795 2752 c-1 -318 -4 -355 -110 -1167 -13 -104 -23 -190 -22 -191 1
-1 62 31 134 73 96 53 134 81 138 96 26 121 46 956 26 1072 -19 106 -45 175
-107 277 -31 51 -57 94 -58 95 0 1 -1 -114 -1 -255z"/>
<path d="M118 2624 c-69 -205 -89 -330 -95 -579 -6 -285 3 -313 45 -139 59
244 97 557 90 744 l-3 85 -37 -111z"/>
<path d="M1039 2410 c3 -225 -8 -548 -26 -756 l-6 -76 94 48 94 49 7 50 c27
189 27 600 -1 717 -5 23 -31 62 -69 105 -33 37 -69 78 -79 91 -17 22 -18 16
-14 -228z"/>
<path d="M1288 2171 c2 -115 -1 -264 -7 -331 -6 -68 -10 -124 -9 -125 2 -1 36
12 75 29 l73 31 0 81 c0 91 28 214 62 275 22 39 22 40 2 57 -10 10 -59 57
-109 104 l-90 87 3 -208z"/>
<path d="M1534 2084 c-29 -69 -44 -137 -44 -206 0 -38 2 -68 4 -68 3 0 47 11
98 25 51 14 121 28 156 31 l63 7 -53 54 c-29 30 -88 86 -131 125 l-77 70 -16
-38z"/>
<path d="M1669 1786 c-118 -26 -264 -86 -509 -208 -369 -183 -590 -316 -808
-485 -94 -73 -93 -55 -10 -185 l49 -77 114 74 c451 293 944 560 1386 749 l96
41 -47 53 -47 52 -84 -1 c-46 -1 -109 -7 -140 -13z"/>
<path d="M1850 1561 c-330 -148 -692 -337 -1005 -524 -197 -118 -405 -254
-405 -264 0 -4 22 -32 48 -62 l48 -53 309 157 c563 287 1292 668 1308 684 9 9
-100 141 -117 141 -6 0 -90 -35 -186 -79z"/>
<path d="M2020 1348 c-253 -136 -667 -351 -1083 -563 l-349 -178 59 -59 c45
-46 63 -58 80 -53 44 11 464 209 708 334 384 198 865 471 865 493 0 8 -91 131
-94 127 -1 -1 -84 -46 -186 -101z"/>
<path d="M2210 1179 c-342 -206 -933 -515 -1290 -676 -74 -33 -135 -64 -135
-69 0 -5 52 -44 115 -87 133 -90 122 -89 295 -32 434 142 842 422 1122 770 88
109 87 106 55 143 l-27 32 -135 -81z"/>
<path d="M2385 1063 c-71 -95 -234 -262 -345 -355 -242 -203 -576 -386 -847
-465 -35 -10 -63 -21 -63 -24 0 -17 219 -101 361 -139 l106 -28 224 211 c348
328 646 626 680 678 l30 47 -45 71 c-25 39 -47 71 -48 71 -2 -1 -25 -31 -53
-67z"/>
<path d="M2532 866 c-30 -42 -359 -364 -685 -671 -86 -82 -154 -152 -150 -156
5 -4 64 -12 131 -19 115 -11 125 -10 145 7 247 209 447 412 526 532 52 81 111
221 111 268 0 21 -30 83 -41 83 -3 0 -20 -20 -37 -44z"/>
<path d="M2637 673 c-61 -155 -184 -307 -418 -518 -86 -77 -155 -141 -154
-142 1 -2 53 2 116 8 134 12 152 21 251 132 119 133 176 213 264 366 l42 73
-27 57 c-48 101 -44 100 -74 24z"/>
<path d="M2722 427 c-66 -108 -154 -226 -227 -305 -55 -59 -56 -63 -29 -57 59
14 291 94 356 123 l67 31 -18 53 c-22 64 -92 238 -96 238 -1 0 -25 -37 -53
-83z"/>
</g>
</svg>
