<?xml version="1.0" standalone="no"?>
<!DOCTYPE svg PUBLIC "-//W3C//DTD SVG 20010904//EN"
 "http://www.w3.org/TR/2001/REC-SVG-20010904/DTD/svg10.dtd">
<svg version="1.0" xmlns="http://www.w3.org/2000/svg">

<defs>

<!-- GNF LOGO -->
<g id="gnf-logo" transform="translate(0.000000,400.000000) scale(0.100000,-0.100000)"
fill="#1db954" stroke="#1db954">
<path d="M1785 3978 c-44 -5 -118 -17 -165 -26 -101 -20 -99 -14 -34 -146 109
-219 221 -353 634 -758 177 -172 371 -369 433 -437 506 -557 742 -1030 856
-1710 l28 -164 41 52 c23 29 42 63 42 76 0 29 -123 825 -150 970 -61 323 -143
546 -278 751 -95 145 -152 207 -562 614 -412 409 -488 497 -599 694 l-54 96
-56 -1 c-31 -1 -92 -6 -136 -11z"/>
<path d="M2063 3976 c14 -36 87 -154 139 -223 97 -131 238 -281 457 -488 422
-398 566 -567 683 -799 125 -249 169 -426 278 -1136 27 -179 52 -341 56 -360
l6 -34 32 53 c18 29 48 85 67 123 l34 70 -28 136 c-171 834 -415 1457 -750
1912 -94 127 -157 200 -313 360 -134 137 -205 233 -226 302 -9 32 -17 40 -47
48 -54 14 -215 38 -310 46 -77 6 -84 5 -78 -10z"/>
<path d="M1342 3876 c-51 -18 -97 -37 -102 -42 -5 -5 -3 -39 5 -79 36 -185
126 -350 292 -537 81 -92 176 -178 423 -387 221 -186 399 -362 543 -536 392
-472 665 -1006 813 -1592 21 -82 39 -150 41 -152 2 -3 28 20 58 49 66 65 66
63 29 282 -84 499 -235 880 -501 1264 -163 235 -336 427 -738 820 -173 169
-349 347 -392 395 -152 175 -256 331 -315 474 -21 49 -37 75 -47 74 -9 0 -58
-15 -109 -33z"/>
<path d="M2575 3879 c37 -70 80 -122 238 -286 213 -221 322 -363 466 -607 215
-365 399 -873 531 -1461 22 -99 43 -191 46 -205 6 -22 9 -18 26 30 11 30 32
104 48 164 l28 109 -20 71 c-52 183 -249 705 -391 1031 -164 377 -438 923
-480 958 -40 32 -314 164 -398 192 -46 15 -90 30 -98 33 -10 4 -9 -4 4 -29z"/>
<path d="M1086 3764 c-87 -45 -146 -82 -146 -92 0 -4 9 -43 19 -87 54 -225
172 -452 344 -664 90 -111 295 -313 522 -516 110 -98 249 -226 308 -284 448
-436 784 -970 986 -1567 28 -80 52 -149 55 -152 3 -2 30 14 61 38 36 28 55 50
55 64 0 11 -11 68 -25 126 -144 595 -431 1165 -823 1635 -120 143 -362 377
-562 544 -344 287 -523 488 -625 704 -40 85 -85 226 -85 269 0 24 -4 23 -84
-18z"/>
<path d="M819 3597 c-128 -97 -132 -101 -124 -143 25 -135 132 -374 244 -546
145 -222 325 -417 853 -921 325 -311 499 -513 692 -802 168 -251 292 -487 406
-772 32 -79 61 -147 64 -150 6 -6 142 72 151 87 3 5 -15 72 -40 150 -111 340
-274 671 -479 975 -193 286 -406 519 -801 875 -573 517 -772 782 -879 1172
l-32 116 -55 -41z"/>
<path d="M3221 3564 c2 -5 50 -99 105 -209 224 -441 431 -929 599 -1409 61
-174 65 -171 65 55 0 545 -220 1060 -614 1436 -90 86 -163 146 -155 127z"/>
<path d="M536 3338 c-66 -71 -86 -98 -81 -113 13 -45 17 -572 6 -785 -9 -181
-64 -953 -85 -1187 -2 -29 -3 -53 0 -53 2 0 41 26 86 58 46 33 93 64 104 70
18 9 23 24 29 79 4 37 26 217 50 398 74 559 79 612 79 930 0 325 -10 425 -65
594 -17 53 -32 97 -33 99 -2 1 -43 -39 -90 -90z"/>
<path d="M354 3110 c-17 -25 -53 -83 -79 -129 l-49 -85 -2 -240 c-3 -346 -43
-624 -133 -920 l-39 -129 28 -106 c16 -58 38 -132 49 -164 30 -85 102 -247
110 -247 4 0 19 12 34 28 25 26 27 37 37 167 6 77 24 313 40 525 16 212 34
468 40 570 11 209 13 674 2 735 l-7 40 -31 -45z"/>
<path d="M795 2752 c-1 -318 -4 -355 -110 -1167 -13 -104 -23 -190 -22 -191 1
-1 62 31 134 73 96 53 134 81 138 96 26 121 46 956 26 1072 -19 106 -45 175
-107 277 -31 51 -57 94 -58 95 0 1 -1 -114 -1 -255z"/>
<path d="M118 2624 c-69 -205 -89 -330 -95 -579 -6 -285 3 -313 45 -139 59
244 97 557 90 744 l-3 85 -37 -111z"/>
<path d="M1039 2410 c3 -225 -8 -548 -26 -756 l-6 -76 94 48 94 49 7 50 c27
189 27 600 -1 717 -5 23 -31 62 -69 105 -33 37 -69 78 -79 91 -17 22 -18 16
-14 -228z"/>
<path d="M1288 2171 c2 -115 -1 -264 -7 -331 -6 -68 -10 -124 -9 -125 2 -1 36
12 75 29 l73 31 0 81 c0 91 28 214 62 275 22 39 22 40 2 57 -10 10 -59 57
-109 104 l-90 87 3 -208z"/>
<path d="M1534 2084 c-29 -69 -44 -137 -44 -206 0 -38 2 -68 4 -68 3 0 47 11
98 25 51 14 121 28 156 31 l63 7 -53 54 c-29 30 -88 86 -131 125 l-77 70 -16
-38z"/>
<path d="M1669 1786 c-118 -26 -264 -86 -509 -208 -369 -183 -590 -316 -808
-485 -94 -73 -93 -55 -10 -185 l49 -77 114 74 c451 293 944 560 1386 749 l96
41 -47 53 -47 52 -84 -1 c-46 -1 -109 -7 -140 -13z"/>
<path d="M1850 1561 c-330 -148 -692 -337 -1005 -524 -197 -118 -405 -254
-405 -264 0 -4 22 -32 48 -62 l48 -53 309 157 c563 287 1292 668 1308 684 9 9
-100 141 -117 141 -6 0 -90 -35 -186 -79z"/>
<path d="M2020 1348 c-253 -136 -667 -351 -1083 -563 l-349 -178 59 -59 c45
-46 63 -58 80 -53 44 11 464 209 708 334 384 198 865 471 865 493 0 8 -91 131
-94 127 -1 -1 -84 -46 -186 -101z"/>
<path d="M2210 1179 c-342 -206 -933 -515 -1290 -676 -74 -33 -135 -64 -135
-69 0 -5 52 -44 115 -87 133 -90 122 -89 295 -32 434 142 842 422 1122 770 88
109 87 106 55 143 l-27 32 -135 -81z"/>
<path d="M2385 1063 c-71 -95 -234 -262 -345 -355 -242 -203 -576 -386 -847
-465 -35 -10 -63 -21 -63 -24 0 -17 219 -101 361 -139 l106 -28 224 211 c348
328 646 626 680 678 l30 47 -45 71 c-25 39 -47 71 -48 71 -2 -1 -25 -31 -53
-67z"/>
<path d="M2532 866 c-30 -42 -359 -364 -685 -671 -86 -82 -154 -152 -150 -156
5 -4 64 -12 131 -19 115 -11 125 -10 145 7 247 209 447 412 526 532 52 81 111
221 111 268 0 21 -30 83 -41 83 -3 0 -20 -20 -37 -44z"/>
<path d="M2637 673 c-61 -155 -184 -307 -418 -518 -86 -77 -155 -141 -154
-142 1 -2 53 2 116 8 134 12 152 21 251 132 119 133 176 213 264 366 l42 73
-27 57 c-48 101 -44 100 -74 24z"/>
<path d="M2722 427 c-66 -108 -154 -226 -227 -305 -55 -59 -56 -63 -29 -57 59
14 291 94 356 123 l67 31 -18 53 c-22 64 -92 238 -96 238 -1 0 -25 -37 -53
-83z"/>
</g>

<!-- GNF TEXT -->
<g id="gnf-text" transform="translate(0.000000,193.000000) scale(0.100000,-0.100000)"
fill="#1db954" stroke="#1db954">
<path d="M274 1792 c-121 -42 -189 -144 -187 -283 2 -110 58 -205 146 -248
208 -101 446 23 447 232 l0 57 -165 0 -165 0 0 -60 0 -60 88 0 87 -1 -31 -28
c-58 -53 -149 -52 -210 1 -74 65 -64 198 19 248 57 35 158 22 196 -24 10 -12
33 -16 93 -16 78 0 79 0 72 22 -43 138 -231 215 -390 160z"/>
<path d="M1454 1792 c-123 -44 -189 -144 -187 -286 1 -56 7 -80 31 -127 l30
-57 -29 -34 c-15 -18 -28 -37 -29 -41 0 -5 42 -8 93 -7 50 1 118 -3 150 -9 83
-15 174 4 239 51 107 75 143 244 79 372 l-29 60 29 35 c16 20 29 39 29 44 0 5
-44 8 -97 7 -54 -1 -134 1 -178 5 -63 4 -91 2 -131 -13z m140 -134 c-4 -7 -44
-58 -88 -112 l-80 -100 -8 30 c-17 61 13 143 65 174 37 23 123 28 111 8z m120
-109 c14 -70 -27 -148 -91 -175 -38 -16 -96 -19 -91 -4 5 17 160 210 168 210
4 0 10 -14 14 -31z"/>
<path d="M2070 1797 c-52 -17 -114 -84 -128 -139 -7 -28 -12 -124 -12 -232 l0
-186 75 0 75 0 0 189 c0 175 1 190 21 215 17 21 29 26 65 26 95 0 104 -23 104
-256 l0 -174 70 0 70 0 0 203 c0 196 -1 205 -25 253 -26 52 -70 88 -126 104
-44 13 -144 11 -189 -3z"/>
<path d="M2640 1797 c-52 -17 -114 -84 -128 -139 -7 -28 -12 -124 -12 -232 l0
-186 75 0 75 0 0 189 c0 175 1 190 21 215 17 21 29 26 65 26 95 0 104 -23 104
-256 l0 -174 70 0 70 0 0 203 c0 196 -1 205 -25 253 -26 52 -70 88 -126 104
-44 13 -144 11 -189 -3z"/>
<path d="M760 1520 l0 -280 75 0 75 0 0 85 c0 83 0 85 24 85 20 0 33 -15 73
-85 l48 -85 89 0 88 0 -18 28 c-9 15 -37 56 -60 91 l-43 65 38 35 c106 99 68
289 -66 329 -23 7 -101 12 -182 12 l-141 0 0 -280z m292 115 c8 -18 9 -35 2
-53 -9 -25 -14 -27 -77 -30 l-67 -3 0 56 0 55 65 0 c60 0 66 -2 77 -25z"/>
<path d="M3080 1520 l0 -280 210 0 210 0 0 65 0 65 -135 0 -135 0 0 45 0 45
110 0 110 0 0 60 0 60 -110 0 -110 0 0 40 0 40 135 0 135 0 0 70 0 70 -210 0
-210 0 0 -280z"/>
<path d="M240 727 c-52 -17 -114 -84 -128 -139 -7 -28 -12 -124 -12 -232 l0
-186 75 0 75 0 0 189 c0 175 1 190 21 215 17 21 29 26 65 26 95 0 104 -23 104
-256 l0 -174 70 0 70 0 0 203 c0 196 -1 205 -25 253 -26 52 -70 88 -126 104
-44 13 -144 11 -189 -3z"/>
<path d="M816 725 c-57 -20 -87 -45 -116 -96 -24 -42 -25 -52 -28 -251 l-3
-208 70 0 71 0 0 75 0 75 105 0 105 0 0 -75 0 -75 76 0 76 0 -4 203 c-3 184
-5 206 -25 243 -28 53 -82 100 -130 113 -53 15 -150 13 -197 -4z m159 -131
c24 -9 45 -58 45 -104 l0 -40 -106 0 -107 0 6 53 c8 67 39 97 102 97 24 0 51
-3 60 -6z"/>
<path d="M1954 722 c-123 -44 -189 -144 -187 -285 2 -121 74 -225 181 -261 58
-20 177 -21 231 -1 83 29 150 99 172 178 40 150 -24 302 -151 360 -63 29 -179
33 -246 9z m193 -142 c107 -65 82 -245 -38 -282 -107 -32 -217 67 -193 175 18
85 67 127 149 127 32 0 62 -7 82 -20z"/>
<path d="M5314 721 c-81 -37 -123 -115 -109 -200 13 -77 64 -115 187 -141 55
-11 88 -30 88 -51 0 -5 -9 -18 -20 -29 -35 -35 -120 -21 -120 20 0 18 -7 20
-75 20 -82 0 -84 -1 -64 -61 16 -47 66 -97 110 -110 20 -6 72 -10 116 -8 95 5
142 30 173 95 57 116 -6 229 -139 249 -74 11 -111 30 -111 57 0 31 18 48 51
48 40 0 59 -10 70 -36 8 -22 14 -24 74 -24 61 0 65 1 65 23 -1 37 -36 103 -66
124 -67 46 -160 56 -230 24z"/>
<path d="M5784 721 c-81 -37 -123 -115 -109 -200 13 -77 64 -115 187 -141 55
-11 88 -30 88 -51 0 -5 -9 -18 -20 -29 -35 -35 -120 -21 -120 20 0 18 -7 20
-75 20 -82 0 -84 -1 -64 -61 16 -47 66 -97 110 -110 20 -6 72 -10 116 -8 95 5
142 30 173 95 57 116 -6 229 -139 249 -74 11 -111 30 -111 57 0 31 18 48 51
48 40 0 59 -10 70 -36 8 -22 14 -24 74 -24 61 0 65 1 65 23 -1 37 -36 103 -66
124 -67 46 -160 56 -230 24z"/>
<path d="M6846 725 c-57 -20 -87 -45 -116 -96 -24 -42 -25 -52 -28 -251 l-3
-208 70 0 71 0 0 75 0 75 105 0 105 0 0 -75 0 -75 76 0 76 0 -4 203 c-3 184
-5 206 -25 243 -28 53 -82 100 -130 113 -53 15 -150 13 -197 -4z m159 -131
c24 -9 45 -58 45 -104 l0 -40 -106 0 -107 0 6 53 c8 67 39 97 102 97 24 0 51
-3 60 -6z"/>
<path d="M1260 450 l0 -280 176 0 c144 0 182 3 211 17 49 23 73 66 73 131 0
60 -11 88 -47 118 l-25 22 23 32 c32 43 34 135 3 177 -40 55 -72 63 -251 63
l-163 0 0 -280z m288 112 c6 -39 -15 -52 -79 -52 l-59 0 0 40 0 41 68 -3 c61
-3 67 -5 70 -26z m10 -184 c7 -7 12 -21 12 -33 0 -35 -20 -45 -92 -45 l-68 0
0 45 0 45 68 0 c40 0 73 -5 80 -12z"/>
<path d="M2440 450 l0 -280 75 0 75 0 0 110 0 110 110 0 110 0 0 65 0 65 -110
0 -110 0 0 35 0 34 133 3 132 3 3 68 3 67 -211 0 -210 0 0 -280z"/>
<path d="M3068 720 c-52 -16 -98 -52 -126 -98 -27 -46 -27 -49 -30 -249 l-3
-203 70 0 71 0 0 75 0 75 95 0 95 0 0 -75 0 -75 210 0 210 0 0 65 0 65 -135 0
-135 0 0 45 0 45 110 0 110 0 0 60 0 60 -110 0 -110 0 0 40 0 40 135 0 135 0
0 70 0 70 -282 -1 c-156 0 -295 -4 -310 -9z m172 -200 l0 -70 -96 0 -97 0 7
48 c9 69 39 92 122 92 l64 0 0 -70z"/>
<path d="M3750 450 l0 -280 205 0 205 0 0 65 0 65 -130 0 -130 0 0 215 0 215
-75 0 -75 0 0 -280z"/>
<path d="M4230 450 l0 -280 205 0 205 0 0 65 0 65 -130 0 -130 0 0 215 0 215
-75 0 -75 0 0 -280z"/>
<path d="M4710 450 l0 -280 210 0 210 0 0 65 0 65 -135 0 -135 0 0 45 0 45
110 0 110 0 0 60 0 60 -110 0 -110 0 0 40 0 40 135 0 135 0 0 70 0 70 -210 0
-210 0 0 -280z"/>
<path d="M6160 450 l0 -280 75 0 74 0 3 106 3 106 74 -106 74 -106 94 0 94 0
-109 143 -109 142 94 120 c133 169 131 155 24 155 l-89 0 -76 -107 -76 -107 0
107 0 107 -75 0 -75 0 0 -280z"/>
<path d="M7290 450 l0 -280 176 0 c144 0 182 3 211 17 49 23 73 66 73 131 0
60 -11 88 -47 118 l-25 22 23 32 c32 43 34 135 3 177 -40 55 -72 63 -251 63
l-163 0 0 -280z m288 112 c6 -39 -15 -52 -79 -52 l-59 0 0 40 0 41 68 -3 c61
-3 67 -5 70 -26z m10 -184 c7 -7 12 -21 12 -33 0 -35 -20 -45 -92 -45 l-68 0
0 45 0 45 68 0 c40 0 73 -5 80 -12z"/>
<path d="M7820 450 l0 -280 210 0 210 0 0 65 0 65 -135 0 -135 0 0 45 0 45
110 0 110 0 0 60 0 60 -110 0 -110 0 0 40 0 40 135 0 135 0 0 70 0 70 -210 0
-210 0 0 -280z"/>
<path d="M8330 450 l0 -280 75 0 75 0 0 85 c0 83 0 85 24 85 20 0 33 -15 73
-85 l48 -85 89 0 88 0 -18 28 c-9 15 -37 56 -60 91 l-43 65 38 35 c106 99 68
289 -66 329 -23 7 -101 12 -182 12 l-141 0 0 -280z m292 115 c8 -18 9 -35 2
-53 -9 -25 -14 -27 -77 -30 l-67 -3 0 56 0 55 65 0 c60 0 66 -2 77 -25z"/>
</g>

<!-- EMAIL ICON -->
<g id="email">
<path fill="#000000" d="M66.682,47.733L50.296,60.288L33.868,47.785l-18.352,18.25l0.013,5.547c0.002,1.598,1.389,2.888,3.089,2.881  l63.397-0.102c1.705,0.005,3.084-1.289,3.082-2.887l-0.008-5.539L66.682,47.733z"></path>
<polygon fill="#000000" points="29.972,44.821 15.469,33.781 15.506,59.205 "></polygon>
<polygon fill="#000000" points="70.572,44.76 85.078,59.097 85.04,33.678 "></polygon>
<g>
<path fill="#000000" d="M81.941,24.296l-63.399,0.093c-1.704,0.004-3.085,1.295-3.082,2.893v1.239l34.828,26.508l34.743-26.612   v-1.239C85.027,25.579,83.643,24.291,81.941,24.296z M60.73,37.464c-0.323,0.896-0.776,1.703-1.365,2.422   c-0.594,0.715-1.299,1.294-2.135,1.743c-0.834,0.45-1.764,0.68-2.779,0.698c-1.158-0.002-2.042-0.279-2.644-0.843   c-0.478,0.226-0.979,0.42-1.501,0.595c-0.523,0.169-1.185,0.254-1.979,0.259c-0.51-0.002-0.988-0.073-1.429-0.217   c-0.443-0.139-0.838-0.357-1.171-0.665c-0.334-0.301-0.601-0.688-0.797-1.146c-0.201-0.46-0.303-1.012-0.306-1.651   c0-1.012,0.181-1.937,0.537-2.776c0.351-0.844,0.843-1.57,1.464-2.185c0.614-0.611,1.332-1.085,2.151-1.427   c0.82-0.348,1.694-0.52,2.637-0.52c0.714-0.005,1.414,0.046,2.108,0.144c0.689,0.094,1.338,0.248,1.943,0.454l-1.518,7.568   c0.162,0.118,0.426,0.174,0.794,0.171c0.584,0.003,1.106-0.162,1.569-0.487c0.463-0.329,0.844-0.757,1.155-1.277   c0.304-0.52,0.542-1.097,0.701-1.733c0.153-0.625,0.233-1.251,0.233-1.863c-0.002-1.705-0.562-3.012-1.674-3.919   c-1.113-0.908-2.68-1.355-4.695-1.354c-1.564,0.002-2.947,0.253-4.159,0.751c-1.217,0.5-2.244,1.17-3.075,2.013   c-0.833,0.839-1.47,1.813-1.903,2.905c-0.434,1.094-0.653,2.227-0.653,3.402c0.002,1.073,0.174,1.988,0.521,2.746   c0.341,0.753,0.806,1.377,1.395,1.86c0.588,0.479,1.276,0.833,2.063,1.051c0.787,0.227,1.627,0.335,2.515,0.335   c0.829-0.005,1.594-0.051,2.292-0.148c0.7-0.097,1.333-0.249,1.909-0.46c0.141,0.328,0.278,0.667,0.406,1.012   c0.124,0.349,0.242,0.694,0.334,1.038c-0.281,0.133-0.632,0.259-1.024,0.37c-0.4,0.11-0.831,0.202-1.289,0.269   c-0.461,0.067-0.949,0.121-1.467,0.16c-0.519,0.04-1.027,0.061-1.538,0.061c-1.223,0-2.383-0.161-3.478-0.485   c-1.102-0.328-2.06-0.827-2.889-1.51c-0.827-0.674-1.479-1.518-1.961-2.542c-0.477-1.025-0.719-2.249-0.72-3.662   c0-1.325,0.253-2.657,0.774-4.017c0.508-1.356,1.301-2.573,2.362-3.675c1.057-1.097,2.419-1.986,4.062-2.682   c1.642-0.695,3.596-1.048,5.851-1.052c1.209,0.001,2.353,0.153,3.424,0.452c1.067,0.31,2.012,0.771,2.815,1.397   c0.801,0.623,1.439,1.401,1.909,2.348c0.466,0.948,0.703,2.056,0.708,3.33C61.219,35.652,61.055,36.56,60.73,37.464z"></path>
<path fill="#000000" d="M51.15,34.096c-0.535,0-1.006,0.112-1.414,0.338c-0.417,0.227-0.765,0.527-1.055,0.897   c-0.292,0.372-0.512,0.792-0.661,1.29c-0.155,0.49-0.23,1-0.234,1.528c0.002,0.677,0.16,1.167,0.479,1.472   c0.314,0.302,0.726,0.449,1.243,0.446c0.323,0.003,0.602-0.021,0.838-0.064c0.229-0.044,0.485-0.109,0.762-0.187l1.034-5.612   c-0.177-0.044-0.343-0.072-0.498-0.087C51.491,34.1,51.324,34.095,51.15,34.096z"></path>
</g>
</g>

<!-- FACEBOOK ICON  -->

<g id="facebook">
	<path class="st0" fill="#395185" d="M483.7,512c15.6,0,28.3-12.7,28.3-28.3V28.3C512,12.7,499.3,0,483.7,0H28.3C12.6,0,0,12.7,0,28.3v455.5
		C0,499.3,12.6,512,28.3,512H483.7"/>
	<path class="st1" fill="#FFFFFF" d="M353.3,512V313.7h66.6l10-77.3h-76.5v-49.3c0-22.4,6.2-37.6,38.3-37.6l40.9,0V80.4c-7.1-0.9-31.4-3-59.6-3
		c-59,0-99.4,36-99.4,102.1v57h-66.7v77.3h66.7V512H353.3"/>
</g>

<!-- Globe with meridians -->
<g id="globe">
  <path fill="#000000;" d="M64,0.29C28.87,0.29,0.29,28.87,0.28,64l0,0C0.29,99.13,28.87,127.71,64,127.71 c35.13,0,63.71-28.59,63.71-63.71l0,0C127.71,28.87,99.13,0.29,64,0.29z M89.2,85.25c-6.24-1.85-13.4-3.09-21.59-3.38V67.61h24.18 C91.53,74.23,90.58,80.06,89.2,85.25z M38.75,42.74c6.26,1.86,13.43,3.11,21.64,3.4v14.25H36.16 C36.41,53.76,37.36,47.93,38.75,42.74z M36.22,67.61h24.17v14.25c-8.17,0.29-15.31,1.52-21.55,3.37 C37.44,80.04,36.48,74.22,36.22,67.61z M91.79,60.39H67.61V46.13c8.17-0.29,15.31-1.52,21.55-3.37 C90.56,47.96,91.53,53.78,91.79,60.39z M120.37,60.39h-21.3c-0.26-7.53-1.35-14.17-2.96-20.05c5.73-2.35,10.52-5.19,14.49-8.17 C116.18,40.31,119.7,49.96,120.37,60.39z M106.14,26.48c-3.39,2.51-7.44,4.93-12.28,6.96C89.56,22.2,83.32,14.38,77.76,9.21 C88.91,12.01,98.71,18.16,106.14,26.48z M86.92,35.88c-5.58,1.64-11.97,2.75-19.31,3.03V10.3C73.04,14.18,81.56,22.1,86.92,35.88z M60.39,10.22v28.69c-7.38-0.28-13.82-1.41-19.43-3.07C46.33,21.94,54.92,14.06,60.39,10.22z M50.24,9.21 c-5.55,5.17-11.79,12.99-16.09,24.23c-4.84-2.03-8.89-4.45-12.28-6.96C29.29,18.16,39.1,12.01,50.24,9.21z M17.41,32.17 c3.97,2.97,8.77,5.82,14.49,8.16c-1.61,5.88-2.7,12.52-2.96,20.05H7.64C8.3,49.96,11.83,40.31,17.41,32.17z M28.94,67.61 c0.26,7.53,1.36,14.17,2.96,20.06c-5.73,2.34-10.52,5.19-14.49,8.16c-5.58-8.14-9.11-17.79-9.78-28.22H28.94z M21.88,101.52 c3.38-2.51,7.43-4.92,12.28-6.96c4.3,11.23,10.53,19.06,16.09,24.23C39.1,115.99,29.29,109.84,21.88,101.52z M41.08,92.12 c5.58-1.64,11.97-2.75,19.3-3.03v28.62C54.97,113.83,46.45,105.9,41.08,92.12z M67.61,117.77V89.09c7.37,0.28,13.79,1.4,19.38,3.05 C81.63,106.04,73.08,113.93,67.61,117.77z M77.77,118.79c5.55-5.17,11.79-12.99,16.09-24.23c4.84,2.03,8.89,4.45,12.27,6.96 C98.71,109.84,88.91,115.99,77.77,118.79z M110.6,95.83c-3.97-2.97-8.77-5.82-14.49-8.16c1.61-5.89,2.7-12.52,2.96-20.06h21.3 C119.71,78.04,116.18,87.69,110.6,95.83z" />
</g>

<!-- Trees-->
<svg id="trees" data-name="Layer 1" xmlns="http://www.w3.org/2000/svg" viewBox="0 0 122.88 80.58">
<title>trees</title>
<path fill-rule="evenodd" fill="#333" class="cls-1" d="M114.64,80.58H.48c0-14.17,114.16-14.17,114.16,0Z"/>
<path fill-rule="evenodd" fill="#8c5d0f" class="cls-2" d="M20,74.32l17.83-3.2L35,64.89l9.12-15.53-3-2.92c-.44,0-.88,0-1.3,0l-5.57,9.27L34,52c-1.68-1.24-7.78-5.26-9.24-6.84l-.25,8.08-4.26-8.16L16,47l7.67,12.7L20,74.32Z"/>
<path fill="#1db954" class="cls-3" d="M15.11,48.51,17.24,48h0A18.49,18.49,0,0,0,22.57,45,20.9,20.9,0,0,0,24,46.73a10.58,10.58,0,0,0,6.22,3.54l.63-.51c-2.57-1.79-5.67-4-6.28-4.88a18.55,18.55,0,0,1-2.1-4.15c-.07-.17-.14-.34-.2-.52a22.37,22.37,0,0,1-1-8.62A29.89,29.89,0,0,1,22.64,25a23.37,23.37,0,0,1-1.44-5.14,20.49,20.49,0,0,1,.19-7.67c.18-.83.42-1.71.71-2.62a19.79,19.79,0,0,0-9-.44,24.92,24.92,0,0,0-9,4.32C2.18,15.1.86,18.23.29,20.66a13.55,13.55,0,0,0,1.62,9.59C0,34.8-.09,38.78,1,41.87a10.13,10.13,0,0,0,3.56,4.9c1.6,1.17,5.57,1.84,7.73,1.94a12.68,12.68,0,0,0,2.85-.2Zm0,0Z"/>
<path fill="#4da11d" class="cls-4" d="M5.59,34.68a11.15,11.15,0,0,0,.71,7.79A6.87,6.87,0,0,0,8.71,45a6.91,6.91,0,0,1-.81-1.19A11.09,11.09,0,0,1,7.21,36l0-.06L5.59,34.68Zm5-19.39A10.12,10.12,0,0,0,6.11,18,7.93,7.93,0,0,0,4,22.4,9.15,9.15,0,0,0,5.7,28.76l0,.06L7.16,30.2a9.11,9.11,0,0,1-1.68-6.3,7.86,7.86,0,0,1,2.13-4.42,10.12,10.12,0,0,1,4.48-2.69,14.11,14.11,0,0,1,8.87.43c0-.17,0-.34,0-.51a12.19,12.19,0,0,0-10.41-1.42Z"/>
<polygon fill="#af7311" class="cls-5" points="26.12 63.92 25.7 67.46 25.62 68.13 24.98 68.08 23.96 68 24.11 66.67 24.49 66.7 24.84 63.83 26.12 63.93 26.12 63.92 26.12 63.92"/>
<polygon fill="#af7311" class="cls-5" points="26.68 57.3 26.15 62.54 24.86 62.47 25.39 57.22 26.68 57.3 26.68 57.3 26.68 57.3"/>
<path fill-rule="evenodd" fill="#8c5d0f" class="cls-2" d="M80.46,71.2l17.15,2.19-3.17-9.08,8.87-15.11-3.67-3.63L93.75,55.4l-.67-11c-1.57,4.5-4.32,5.48-8.65,4.28L84.29,53l-2.47-4.74c-1.75-.35-3.67-.81-5.71-1.33l-.11,0L83.47,59.3l-3,11.9Z"/>
<path fill="#1db954" class="cls-3" d="M86.82,49.07a8.66,8.66,0,0,0,3,1,9.59,9.59,0,0,0,6.7-1.85A18,18,0,0,0,98,47.09l2.32,2a9.38,9.38,0,0,0,1.57.86,7.13,7.13,0,0,0,5.27.28c1.61-.56,5-1.71,6.18-3.36a17.37,17.37,0,0,0,2.7-6.77c3.22-1.78,5.21-3.92,6.16-6.1a7.5,7.5,0,0,0,.44-4.86,8.25,8.25,0,0,0-2.6-4.13c-2-1.74-6.82-2.95-10.4-3.22-.5-.92-1-3.75-1.57-4.55-2.66-3.91-5.67-6.14-8.87-7a12.47,12.47,0,0,0-7.09.32,17.19,17.19,0,0,1,5.93,3.33,16,16,0,0,1,2.81,3.49,15.19,15.19,0,0,1,1.74,4.21v0a14.57,14.57,0,0,1,.38,4.14,13.92,13.92,0,0,1-1.17,6.33h0a17.21,17.21,0,0,1-3.73,5.37,23.19,23.19,0,0,1-3.53,2.85,26.69,26.69,0,0,1-1,2.94c-1.48,3.73-2.34,6-6.74,5.83Z"/>
<polygon fill="#af7311" class="cls-5" points="85.83 63.37 85.42 66.81 85.34 67.46 84.71 67.41 83.72 67.34 83.87 66.04 84.24 66.06 84.57 63.27 85.83 63.37 85.83 63.37 85.83 63.37"/>
<polygon fill="#af7311" class="cls-5" points="86.36 56.92 85.86 62.02 84.6 61.95 85.11 56.85 86.36 56.92 86.36 56.92 86.36 56.92"/>
<polygon fill-rule="evenodd" fill="#8c5d0f" class="cls-2" points="49.04 71.36 68.69 71.1 65.38 64.25 75.87 47.17 71.53 43.07 64.56 54.18 63.77 41.18 53.74 40.33 53.38 51.41 48.48 42.44 43.58 44.61 52.41 58.58 49.04 71.36 49.04 71.36"/>
<path  fill="#1db954" class="cls-3" d="M43.28,46.09l2.35-.65h0A20.27,20.27,0,0,0,51.5,42c.51.72,1,1.38,1.57,2a11.52,11.52,0,0,0,6.84,4.11,10.38,10.38,0,0,0,7.57-2.21,18,18,0,0,0,1.69-1.36l2.62,2.35a11.31,11.31,0,0,0,1.78,1,7.66,7.66,0,0,0,6,.33c1.82-.66,5.67-2,7-4a21.45,21.45,0,0,0,3-8.08c3.64-2.13,5.89-4.68,7-7.28a9.36,9.36,0,0,0,.5-5.8,10,10,0,0,0-2.94-4.92c-2.21-2.08-7.71-3.52-11.75-3.84-.57-1.1-1.17-4.47-1.78-5.42-3-4.67-6.4-7.33-10-8.32S63.08.36,59.27,2.46c-.66.36-1.32.77-2,1.23C51.55.24,45.82-.6,41,.39a26.63,26.63,0,0,0-9.9,5c-2.07,1.91-3.53,5.54-4.14,8.36A16.5,16.5,0,0,0,28.77,24.9c-2.06,5.28-2.2,9.9-1,13.48a11.69,11.69,0,0,0,3.91,5.69c1.77,1.36,6.13,2.14,8.5,2.25a12.89,12.89,0,0,0,3.13-.23Zm0,0Z"/>
<path fill="#4da11d" class="cls-4" d="M74.49,11.17c-1.92-2.91-4.1-4.6-6.42-5.26a10,10,0,0,0-7.63,1.14,13.64,13.64,0,0,0-1.35.8l1.35,1.88.09,0A15.18,15.18,0,0,1,61.89,9a10,10,0,0,1,7.64-1.14,10.5,10.5,0,0,1,5,3.34ZM32.82,30.39a13.49,13.49,0,0,0,.78,9,7.9,7.9,0,0,0,2.65,3A8.37,8.37,0,0,1,35.36,41c-1.17-2.25-1.57-5.35-.76-9.12l-.05-.06-1.73-1.47Zm5.5-22.5A11,11,0,0,0,33.39,11a9.44,9.44,0,0,0-2.34,5.13,11.09,11.09,0,0,0,1.89,7.38l0,.08,1.62,1.59a11.07,11.07,0,0,1-1.85-7.31A9.38,9.38,0,0,1,35,12.75,11,11,0,0,1,40,9.62,15.21,15.21,0,0,1,51,10.68c-3.16-3.44-8.41-4.15-12.7-2.79Z"/>
<polygon fill="#af7311" class="cls-5" points="55.4 63.18 54.93 67.07 54.85 67.81 54.14 67.75 53.01 67.67 53.19 66.2 53.6 66.23 53.98 63.08 55.4 63.19 55.4 63.18 55.4 63.18"/>
<polygon fill="#af7311" class="cls-5" points="56 55.9 55.43 61.66 54.01 61.58 54.59 55.81 56 55.9 56 55.9 56 55.9"/>
</svg>

<!-- Seedling 	-->
<svg id="seedling" data-name="Layer 1" xmlns="http://www.w3.org/2000/svg" viewBox="0 0 122.88 85.97">
<defs>
<style>.cls-1{fill:#338032;}.cls-1,.cls-2{fill-rule:evenodd;}.cls-2{fill:#432a16;}</style>
</defs>
<title>seedling</title>
<path fill-rule="evenodd" fill="#1db954" class="cls-1" d="M56.6,35l0-.22L90,21.61,59.36,39.17a27.46,27.46,0,0,0,17.76,7.91c13.9.92,26.72-5.27,35.29-16a41.47,41.47,0,0,0,4.27-6.68c1.51-2.88,6.9-12.57,6.12-14.89-1.14-3.38-17-5.71-20.63-6.2C83.31.7,60.27,3.83,55.15,26a10.73,10.73,0,0,0-.22,3.3L53.87,30l-1-.73a8.88,8.88,0,0,0,.27-2.35C52.67,7.79,34.22,1.32,18.26.26,15.19.06,1.73-.7.23,1.89-.81,3.66,2,12.55,2.75,15.18A35.26,35.26,0,0,0,5.14,21.4,34.82,34.82,0,0,0,31.49,40.55a23.12,23.12,0,0,0,16-3.52L25.22,17.41l24,15.65v.17c1.91,6.69,1.58,16.38-.27,24.48L58.56,61c-2-7.5-4.41-18.53-2-26Z"/>
<path  fill-rule="evenodd" fill="#432a16" class="cls-2" d="M9.93,80.47C7.52,80.58,5.76,84,6.6,86H97.46a12.45,12.45,0,0,0-9.68-7.67C86.6,66.15,74.7,61.8,65.93,66.47c3.29-9.13-3.7-11.06-8.68-9.69-2.5-3.08-12-.63-12.3,4.92-11.73-7.92-22.87-1.35-21.71,9.84-3.95-2.28-13.61-.92-13.31,8.93Z"/>
</svg>


<!-- LEAF -->
<svg id="leaf" viewBox="0 0 193.31 171.37" xmlns="http://www.w3.org/2000/svg">
  <g id="layer1" transform="translate(-225.13 -273.23)" >
      <path
          stroke="#167d16" stroke-width="3.75" fill="#1db954"
          d="m381.57 295.1c-1.7708 18.314-1.575 36.925-4.9421 54.989-3.1333 16.81-6.7883 34.095-15.44 49.053-6.0902 10.53-14.155 20.461-24.719 26.596-23.916 13.887-52.123 5.8352-70.584-13.241-13.902-14.365-19.149-31.903-15.115-50.891 3.451-16.243 17.33-28.331 30.878-37.245 28.595-19.045 64.401-24.085 97.801-28.92l1.0612-0.16839 1.0606-0.17174 0.00001 0.00006z"
      />
      <path
          style="stroke:#167d16;stroke-width:3.75;fill:none"
          d="m371.18 306.96c-92.917 100.28-97.145 104.04-97.145 104.04"
      />
      <path
          style="stroke:#167d16;stroke-width:3.75;fill:none"
          d="m309.42 331.48c5.1414 22.574 19.839 34.544 42.296 37.902"
      />
      <path
          style="stroke:#167d16;stroke-width:3.75;fill:none"
          d="m285.55 350.22c5.9985 26.337 23.146 40.303 49.347 44.221"
      />
      <path
          style="stroke:#167d16;stroke-width:3.75;fill:none"
          d="m269.28 374.7c5.1414 22.574 19.839 34.544 42.296 37.902"
      />
      <path
          style="stroke:#167d16;stroke-width:3.75;fill:none"
          d="m334 317.81c3.5636 15.647 13.751 23.943 29.316 26.271"
      />
      <path
          style="stroke:#167d16;stroke-width:3.75;fill:none"
          d="m212.01 419.12c19.724 12.124 38.559 10.001 56.673-3.6916"
        />
  </g>
</svg>

</defs>
</svg>