<?xml version="1.0" standalone="no"?>
<!DOCTYPE svg PUBLIC "-//W3C//DTD SVG 20010904//EN"
 "http://www.w3.org/TR/2001/REC-SVG-20010904/DTD/svg10.dtd">
<svg version="1.0" xmlns="http://www.w3.org/2000/svg"
 width="897.000000pt" height="193.000000pt" viewBox="0 0 897.000000 193.000000"
 preserveAspectRatio="xMidYMid meet">
<metadata>
Created by potrace 1.16, written by Peter Selinger 2001-2019
</metadata>
<g transform="translate(0.000000,193.000000) scale(0.100000,-0.100000)"
fill="#1db954" stroke="#1db954">
<path d="M275 1788 c-120 -44 -185 -141 -185 -278 0 -120 46 -202 142 -255 48
-27 61 -30 148 -30 77 0 102 4 135 22 62 32 121 103 139 164 17 55 21 119 9
119 -23 1 -262 2 -285 1 -27 -1 -28 -3 -28 -52 l0 -51 82 3 c68 3 83 1 86 -12
4 -21 -46 -63 -94 -78 -36 -12 -49 -11 -91 3 -80 27 -116 78 -116 166 0 105
59 170 157 170 60 0 99 -15 130 -49 16 -17 31 -21 83 -21 70 0 75 6 44 55 -55
90 -140 135 -251 134 -41 0 -88 -5 -105 -11z"/>
<path d="M1430 1778 c-55 -27 -109 -81 -135 -133 -15 -31 -20 -61 -20 -130 0
-78 4 -97 28 -146 15 -31 27 -60 27 -66 0 -5 -11 -20 -25 -33 -14 -13 -25 -27
-25 -32 0 -5 48 -9 108 -9 59 -1 143 -2 188 -2 70 -1 87 3 126 26 138 81 188
251 115 398 -15 31 -27 60 -27 64 0 4 12 24 26 42 l26 35 -93 -1 c-52 -1 -134
1 -184 4 -78 4 -96 2 -135 -17z m180 -107 c0 -18 -182 -242 -193 -238 -7 2
-16 21 -20 43 -13 58 7 118 54 165 37 37 42 39 99 39 33 0 60 -4 60 -9z m104
-97 c9 -24 7 -110 -3 -137 -25 -65 -132 -123 -180 -97 -12 6 -21 15 -19 20 7
22 174 229 184 230 7 0 15 -7 18 -16z"/>
<path d="M2050 1776 c-31 -15 -55 -38 -75 -71 l-30 -48 -3 -214 -3 -213 65 0
66 0 0 199 0 198 26 27 c22 21 36 26 78 26 97 -1 106 -24 106 -266 l0 -184 65
0 65 0 0 173 c0 205 -11 271 -52 321 -45 55 -98 76 -187 76 -59 -1 -86 -6
-121 -24z"/>
<path d="M2640 1787 c-51 -24 -82 -51 -103 -91 -20 -38 -22 -59 -25 -254 l-4
-213 63 3 64 3 5 203 c5 199 6 204 29 223 27 22 117 26 141 6 36 -30 40 -54
40 -247 l0 -190 66 0 66 0 -4 208 c-3 189 -5 211 -25 247 -44 82 -107 115
-217 114 -39 0 -82 -6 -96 -12z"/>
<path d="M770 1511 l0 -281 60 0 59 0 3 88 3 87 34 0 c32 0 37 -5 73 -70 21
-38 42 -78 45 -87 4 -15 18 -18 79 -18 80 0 85 5 55 48 -10 15 -35 52 -54 83
l-35 56 44 43 c24 23 44 51 44 61 0 10 5 30 12 44 16 35 -7 126 -41 164 -46
50 -65 55 -228 59 l-153 4 0 -281z m247 159 c52 -19 64 -78 25 -122 -12 -14
-31 -18 -84 -18 l-68 0 0 63 c0 36 5 68 12 75 15 15 75 16 115 2z"/>
<path d="M3090 1510 l0 -280 200 0 200 0 0 60 0 60 -134 0 -134 0 -6 35 c-13
70 -8 74 112 77 l107 3 0 50 0 50 -107 3 c-118 3 -127 9 -113 72 8 38 24 42
163 38 l112 -3 0 58 0 57 -200 0 -200 0 0 -280z"/>
<path d="M5375 741 c-101 -17 -161 -92 -151 -189 8 -91 40 -122 152 -148 101
-23 114 -31 114 -70 0 -23 -7 -38 -22 -48 -41 -29 -121 -13 -131 25 -4 16 -15
19 -66 19 -68 0 -72 -5 -47 -63 38 -90 163 -131 279 -91 79 27 127 110 113
197 -13 78 -48 106 -163 133 -83 19 -113 37 -113 67 0 33 40 67 77 67 22 0 38
-9 56 -30 22 -25 33 -30 79 -32 53 -3 53 -2 51 26 -3 41 -48 104 -86 119 -45
19 -95 26 -142 18z"/>
<path d="M5845 741 c-56 -10 -81 -26 -115 -73 -25 -34 -30 -50 -30 -100 0
-101 43 -144 171 -169 61 -12 109 -42 109 -69 0 -23 -49 -60 -79 -60 -44 0
-78 16 -86 39 -5 18 -15 21 -67 21 l-60 0 6 -37 c5 -26 19 -50 45 -75 68 -64
173 -77 261 -30 65 33 90 75 90 149 0 111 -38 145 -195 178 -73 15 -97 64 -53
105 34 31 81 26 113 -11 22 -27 33 -32 73 -33 42 -1 47 2 50 23 6 36 -29 90
-73 116 -46 26 -102 35 -160 26z"/>
<path d="M213 717 c-96 -50 -116 -116 -111 -367 l3 -175 60 0 60 0 5 200 c3
110 9 206 13 213 5 6 22 19 39 28 45 23 103 13 133 -22 24 -28 25 -34 27 -224
l3 -195 60 0 60 0 3 185 c2 117 -1 200 -8 225 -31 109 -99 155 -227 155 -61
-1 -87 -5 -120 -23z"/>
<path d="M798 726 c-39 -17 -86 -65 -106 -106 -14 -29 -17 -69 -17 -240 l0
-205 58 -3 57 -3 0 75 c0 62 3 77 18 84 20 10 194 8 211 -2 6 -4 11 -37 11
-82 l0 -75 58 3 57 3 3 192 c2 172 0 196 -18 246 -21 56 -54 89 -113 115 -35
15 -183 14 -219 -2z m167 -110 c40 -17 68 -72 63 -126 l-3 -35 -115 0 -115 0
2 53 c3 65 16 90 56 107 41 18 70 18 112 1z"/>
<path d="M1277 733 c-4 -3 -7 -132 -7 -285 l0 -279 168 3 c187 3 211 10 250
68 20 29 23 44 20 93 -4 51 -9 62 -43 97 l-39 40 21 22 c37 41 48 89 33 142
-15 54 -43 78 -112 94 -50 13 -280 17 -291 5z m265 -130 c21 -19 23 -52 5 -77
-10 -14 -25 -16 -82 -14 l-70 3 -3 39 c-5 61 0 66 69 66 44 0 68 -5 81 -17z
m16 -209 c27 -19 29 -64 3 -88 -15 -13 -34 -16 -92 -14 l-74 3 -3 49 c-2 32 1
52 10 57 23 15 132 10 156 -7z"/>
<path d="M1935 716 c-99 -45 -155 -139 -155 -262 0 -179 136 -307 310 -291
110 10 190 61 238 152 23 43 26 62 26 140 0 73 -4 98 -21 131 -35 66 -70 101
-128 128 -73 35 -195 36 -270 2z m220 -112 c52 -34 70 -73 70 -151 0 -77 -13
-106 -69 -147 -40 -30 -139 -29 -182 1 -99 71 -87 249 20 303 48 25 119 22
161 -6z"/>
<path d="M2465 728 c-3 -8 -4 -135 -3 -283 l3 -270 58 -3 57 -3 0 110 c0 101
2 111 20 121 12 6 30 8 42 4 11 -3 54 -3 94 1 l74 7 0 49 0 49 -103 0 c-114 0
-127 6 -127 55 0 51 12 55 152 55 l129 0 -3 58 -3 57 -193 3 c-150 2 -194 0
-197 -10z"/>
<path d="M3103 726 c-62 -15 -93 -35 -127 -78 -39 -52 -47 -107 -44 -298 l3
-175 58 -3 57 -3 0 81 c0 64 3 80 15 81 8 0 44 0 80 0 36 0 74 0 85 0 17 -1
19 -9 22 -78 l3 -78 195 0 195 0 3 57 3 57 -133 3 -133 3 0 55 0 55 108 3 108
3 -3 47 -3 47 -108 3 -108 3 3 52 3 52 133 3 133 3 -3 57 -3 57 -245 2 c-169
1 -261 -2 -297 -11z m145 -194 l3 -83 -98 3 -98 3 -3 30 c-2 17 4 47 13 68 20
47 61 68 130 64 l50 -2 3 -83z"/>
<path d="M3767 734 c-4 -4 -7 -133 -7 -286 l0 -278 193 2 192 3 3 57 3 57
-133 3 -133 3 -5 220 -5 220 -50 3 c-28 2 -54 0 -58 -4z"/>
<path d="M4246 722 c-3 -9 -5 -136 -3 -282 l2 -265 193 -3 192 -2 0 59 0 60
-127 3 -128 3 -5 220 -5 220 -57 2 c-46 2 -58 -1 -62 -15z"/>
<path d="M4731 726 c-8 -9 -11 -92 -9 -282 l3 -269 200 0 200 0 3 57 3 57
-138 3 -138 3 0 55 0 55 113 3 112 3 0 49 0 49 -112 3 -113 3 -3 29 c-2 15 -1
39 2 52 6 24 8 24 141 24 l135 0 0 54 c0 40 -4 55 -16 60 -9 3 -96 6 -194 6
-138 0 -180 -3 -189 -14z"/>
<path d="M6202 732 c-9 -7 -12 -70 -10 -283 l3 -274 63 -3 62 -3 0 110 c0 60
4 112 9 115 5 4 45 -45 88 -106 l78 -113 78 -3 c42 -2 77 0 77 4 0 4 -45 67
-100 139 -55 73 -100 138 -100 144 0 11 74 119 90 131 10 8 100 137 100 144 0
3 -31 6 -70 6 l-69 0 -39 -52 c-21 -29 -60 -82 -85 -116 -29 -39 -49 -59 -52
-50 -2 7 -6 58 -7 113 l-3 100 -50 3 c-27 1 -56 -2 -63 -6z"/>
<path d="M6846 720 c-55 -28 -63 -36 -91 -95 -24 -52 -25 -61 -25 -254 l0
-201 60 0 60 0 0 80 0 80 105 0 c58 0 108 0 113 0 4 0 9 -35 12 -77 l5 -78 63
-3 64 -3 -4 213 c-2 156 -7 220 -17 238 -22 41 -74 91 -110 106 -51 21 -187
18 -235 -6z m179 -105 c40 -20 55 -51 55 -116 l0 -50 -112 3 -113 3 2 59 c2
45 7 64 24 82 33 35 92 43 144 19z"/>
<path d="M7330 454 l0 -286 168 4 c146 3 171 6 202 23 51 30 72 77 66 145 -4
47 -10 60 -40 88 -20 18 -36 35 -36 38 0 3 11 20 25 38 19 25 25 45 25 85 0
120 -56 151 -276 151 l-134 0 0 -286z m272 149 c22 -20 23 -56 2 -78 -12 -12
-32 -15 -83 -13 -64 3 -66 4 -69 32 -2 15 -1 39 2 52 6 22 11 24 68 24 43 0
67 -5 80 -17z m16 -209 c27 -19 29 -64 3 -88 -15 -13 -34 -16 -92 -14 l-74 3
-3 49 c-2 32 1 52 10 57 23 15 132 10 156 -7z"/>
<path d="M7867 726 c-3 -8 -5 -136 -4 -283 l2 -268 198 -3 197 -2 0 59 0 60
-132 3 -133 3 0 55 0 55 108 3 107 3 0 49 0 49 -107 3 -108 3 0 50 0 50 133 3
133 3 -3 57 -3 57 -191 3 c-161 2 -193 0 -197 -12z"/>
<path d="M8375 719 c-3 -13 -4 -141 -3 -284 l3 -260 60 0 60 0 5 85 5 85 32 3
c30 3 34 -1 77 -75 24 -43 49 -84 56 -91 13 -14 140 -17 140 -2 0 5 -25 48
-55 94 l-55 85 40 37 c50 46 64 89 58 174 -4 55 -10 72 -33 98 -45 51 -93 64
-247 70 l-137 5 -6 -24z m275 -117 c32 -26 32 -88 0 -114 -18 -15 -36 -18 -84
-16 l-61 3 -3 59 c-2 32 -1 65 2 72 8 22 118 19 146 -4z"/>
</g>
</svg>
