<?xml version="1.0" standalone="no"?>
<!DOCTYPE svg PUBLIC "-//W3C//DTD SVG 20010904//EN"
 "http://www.w3.org/TR/2001/REC-SVG-20010904/DTD/svg10.dtd">
<svg version="1.0" xmlns="http://www.w3.org/2000/svg"
 width="2035.000000pt" height="2035.000000pt" viewBox="0 0 2035.000000 2035.000000"
 preserveAspectRatio="xMidYMid meet">
<metadata>
Created by potrace 1.16, written by Peter Selinger 2001-2019
</metadata>
<g transform="translate(0.000000,2035.000000) scale(0.100000,-0.100000)"
fill="#1db954" stroke="#1db954">
<path d="M8895 20340 c-11 -5 -48 -9 -83 -9 -35 -1 -71 -5 -80 -10 -10 -5 -50
-12 -90 -15 -40 -3 -81 -10 -91 -16 -11 -5 -46 -10 -78 -10 -33 0 -64 -5 -69
-10 -6 -6 -41 -13 -78 -17 -36 -3 -69 -10 -72 -14 -3 -5 -21 -9 -40 -9 -19 0
-60 -6 -92 -14 -31 -8 -111 -27 -177 -41 -178 -40 -205 -48 -205 -62 0 -17 77
-219 125 -328 7 -16 17 -41 23 -55 13 -34 88 -194 117 -250 87 -171 159 -306
167 -308 4 -2 8 -12 8 -22 0 -10 5 -22 11 -25 5 -4 14 -17 19 -28 5 -12 23
-44 39 -72 17 -27 38 -63 47 -80 9 -16 20 -32 23 -35 3 -3 15 -21 25 -40 11
-19 41 -68 68 -108 26 -40 48 -76 48 -81 0 -5 3 -11 8 -13 4 -1 33 -41 64 -88
32 -47 85 -123 118 -170 33 -47 78 -110 100 -141 21 -31 45 -63 52 -70 8 -8
25 -30 38 -49 13 -19 27 -37 30 -40 3 -3 13 -14 21 -26 8 -11 30 -41 50 -65
21 -24 65 -80 100 -124 35 -44 78 -96 96 -115 18 -19 36 -43 39 -52 3 -10 9
-18 13 -18 5 0 47 -46 94 -102 47 -57 95 -114 108 -128 12 -14 41 -45 63 -70
23 -25 76 -85 119 -132 43 -48 88 -97 99 -110 108 -125 998 -1022 1225 -1235
54 -50 139 -131 188 -180 50 -48 133 -128 185 -177 52 -49 147 -139 210 -200
64 -61 224 -214 355 -341 444 -425 539 -519 870 -859 182 -186 351 -359 376
-385 26 -25 73 -75 104 -111 32 -36 92 -101 134 -145 109 -116 251 -272 301
-330 24 -27 46 -52 49 -55 4 -3 36 -39 71 -80 36 -41 72 -82 80 -90 9 -8 56
-62 105 -120 50 -58 107 -123 127 -145 20 -22 47 -53 59 -70 13 -16 28 -34 34
-40 6 -5 29 -32 50 -60 22 -27 66 -82 100 -121 84 -98 138 -164 154 -188 8
-12 18 -23 21 -26 4 -3 25 -28 46 -56 21 -28 73 -93 115 -145 41 -52 86 -110
99 -129 14 -19 52 -69 85 -110 70 -88 299 -396 401 -543 116 -165 456 -673
525 -785 93 -149 177 -289 211 -352 17 -30 38 -66 47 -80 33 -52 41 -65 48
-80 4 -8 16 -31 28 -50 37 -58 176 -317 242 -450 27 -52 51 -97 54 -100 8 -8
188 -378 249 -515 25 -57 85 -185 106 -229 8 -16 14 -32 14 -37 0 -4 17 -45
39 -91 21 -45 53 -121 71 -168 18 -47 46 -113 61 -148 16 -35 29 -69 29 -77 0
-7 6 -26 14 -42 17 -32 34 -74 65 -158 13 -33 29 -76 36 -95 34 -88 107 -298
131 -375 10 -33 21 -67 25 -75 4 -8 14 -40 24 -70 9 -30 27 -84 40 -120 12
-36 30 -92 40 -125 9 -33 24 -80 32 -105 17 -51 90 -307 103 -360 5 -19 16
-62 25 -95 9 -33 20 -76 25 -95 5 -19 22 -87 39 -150 17 -63 34 -131 37 -150
3 -19 9 -44 14 -55 4 -11 15 -56 24 -100 10 -44 21 -93 26 -110 9 -28 34 -147
60 -280 6 -33 16 -74 21 -91 5 -17 9 -42 9 -57 0 -14 5 -38 11 -54 10 -26 16
-53 38 -188 5 -27 14 -77 21 -110 6 -33 18 -94 26 -135 8 -41 19 -94 24 -118
6 -23 10 -60 10 -82 0 -21 4 -49 10 -62 9 -21 22 -100 36 -213 2 -22 11 -76
19 -120 8 -44 18 -111 24 -150 5 -38 17 -117 26 -175 8 -58 15 -118 15 -135 0
-16 5 -37 10 -45 9 -13 14 -11 31 10 11 14 31 36 42 50 12 14 51 63 87 110 36
47 71 91 78 99 7 8 21 26 30 40 9 14 23 33 30 41 6 8 46 60 87 115 l75 100 -4
55 c-2 30 -10 84 -16 120 -22 121 -52 315 -60 380 -10 79 -44 304 -64 420 -9
47 -18 103 -21 125 -17 139 -25 189 -34 222 -6 21 -11 55 -11 75 0 21 -4 57
-10 80 -11 50 -29 157 -40 243 -4 33 -16 110 -25 170 -10 61 -21 137 -25 170
-5 33 -16 101 -24 150 -9 50 -21 124 -25 165 -5 41 -14 91 -20 110 -6 19 -11
51 -11 72 0 20 -4 58 -10 85 -18 95 -39 219 -44 263 -3 25 -12 88 -20 140 -45
272 -77 490 -95 632 -5 42 -12 82 -16 88 -4 6 -11 43 -15 83 -5 40 -17 117
-26 172 -9 55 -20 129 -24 165 -9 70 -25 159 -40 228 -6 23 -10 58 -10 77 0
19 -6 54 -14 77 -8 24 -16 66 -19 93 -3 28 -13 91 -22 140 -9 50 -21 113 -25
140 -5 28 -16 86 -25 130 -9 44 -20 103 -25 130 -4 28 -16 86 -25 130 -10 44
-21 100 -26 125 -4 25 -15 77 -24 115 -9 39 -20 90 -24 115 -5 25 -14 68 -21
95 -6 28 -16 66 -20 85 -5 19 -16 63 -24 98 -9 34 -23 90 -32 125 -22 88 -35
135 -49 187 -7 25 -29 106 -50 180 -20 74 -42 153 -50 175 -7 22 -18 60 -25
85 -20 68 -95 294 -130 390 -17 47 -35 96 -39 110 -5 14 -17 48 -28 75 -12 28
-37 93 -58 145 -65 166 -97 245 -104 255 -4 6 -23 46 -41 90 -45 106 -242 500
-298 595 -184 313 -183 310 -327 530 -60 91 -115 169 -122 173 -7 4 -13 13
-13 18 0 12 -78 119 -240 330 -162 209 -176 227 -228 288 -26 30 -56 66 -67
81 -27 35 -106 128 -180 210 -33 37 -109 122 -170 190 -60 68 -146 162 -190
209 -130 140 -897 904 -1065 1061 -85 79 -175 165 -200 190 -26 25 -100 95
-165 155 -66 61 -136 126 -155 145 -20 19 -101 95 -180 169 -411 381 -1214
1174 -1440 1421 -58 63 -116 126 -131 140 -14 14 -56 61 -94 105 -38 44 -72
82 -76 85 -7 6 -241 281 -288 340 -19 23 -40 48 -46 54 -25 27 -228 292 -310
406 -121 167 -110 152 -243 351 -143 215 -138 207 -158 246 -9 18 -22 37 -30
44 -8 6 -14 15 -14 19 0 4 -29 58 -65 119 -36 62 -65 114 -65 117 0 2 -12 23
-26 46 -14 22 -66 121 -116 219 l-89 179 -582 -1 c-320 0 -591 -4 -602 -9z"/>
<path d="M10460 20346 c0 -3 13 -29 28 -58 16 -29 47 -86 68 -126 21 -40 46
-86 54 -101 16 -29 173 -293 202 -339 10 -15 25 -40 34 -57 9 -16 20 -32 23
-35 4 -3 34 -45 66 -95 133 -202 452 -632 478 -643 4 -2 7 -10 7 -18 0 -8 4
-14 9 -14 4 0 20 -17 33 -37 14 -21 38 -52 54 -68 16 -17 47 -53 69 -80 22
-27 58 -70 80 -95 23 -25 56 -63 74 -85 87 -103 364 -406 481 -526 322 -330
763 -766 1034 -1019 38 -36 90 -85 115 -110 26 -25 100 -94 166 -155 65 -60
138 -128 160 -150 23 -22 96 -92 164 -155 67 -63 139 -131 159 -150 21 -19
113 -107 206 -195 205 -195 827 -812 957 -950 196 -208 357 -384 439 -480 47
-54 105 -122 130 -149 136 -153 351 -425 543 -686 111 -151 353 -504 370 -540
4 -8 15 -27 25 -42 15 -23 66 -108 98 -163 41 -71 131 -229 157 -275 35 -64
197 -387 197 -395 0 -3 11 -29 25 -58 14 -28 58 -128 97 -222 38 -93 78 -188
88 -210 9 -22 29 -76 44 -120 15 -44 33 -93 41 -110 7 -16 38 -106 69 -200 32
-93 61 -178 67 -187 5 -10 9 -25 9 -34 0 -8 11 -50 25 -92 14 -42 32 -98 40
-123 8 -26 15 -56 15 -67 0 -12 4 -23 9 -26 4 -3 11 -20 15 -38 3 -18 20 -82
36 -143 30 -105 35 -128 59 -238 6 -27 14 -54 18 -60 4 -7 10 -32 14 -57 4
-25 16 -81 27 -125 11 -44 28 -116 37 -160 10 -44 21 -90 26 -103 5 -13 9 -36
9 -52 0 -16 5 -41 11 -57 6 -15 15 -52 20 -80 19 -113 28 -161 44 -233 25
-114 46 -235 74 -423 6 -37 13 -72 16 -77 3 -5 10 -37 15 -72 5 -35 16 -108
25 -163 9 -55 21 -125 25 -155 4 -30 15 -98 25 -150 16 -91 21 -128 45 -305 6
-44 15 -96 20 -115 5 -19 16 -87 25 -150 21 -151 43 -293 55 -353 6 -27 10
-65 10 -85 0 -19 4 -49 9 -66 6 -17 17 -87 26 -156 9 -69 21 -147 26 -175 13
-68 29 -167 38 -245 7 -60 19 -137 41 -265 24 -144 33 -196 40 -255 5 -36 16
-108 25 -160 9 -52 20 -124 25 -160 5 -36 16 -110 25 -165 9 -55 20 -129 25
-165 6 -36 17 -108 26 -160 8 -52 20 -126 24 -165 5 -38 16 -113 25 -165 9
-52 18 -124 21 -160 3 -36 9 -74 14 -85 5 -11 13 -55 19 -98 5 -43 12 -81 15
-85 4 -3 14 5 23 18 21 29 166 269 176 290 4 8 21 35 37 60 16 25 37 61 47 80
9 19 30 58 46 85 51 87 258 491 297 580 12 28 31 69 41 92 23 50 23 57 5 142
-8 36 -20 93 -26 126 -6 33 -17 89 -25 125 -8 36 -17 79 -20 95 -3 17 -12 62
-21 100 -8 39 -19 90 -23 115 -5 25 -16 77 -25 115 -9 39 -21 93 -26 120 -5
28 -16 82 -25 120 -8 39 -27 124 -41 190 -15 66 -33 149 -41 185 -7 36 -18 86
-23 112 -5 27 -11 51 -13 55 -3 5 -14 53 -26 108 -12 55 -28 129 -37 165 -8
36 -19 85 -24 110 -5 25 -16 74 -25 110 -9 36 -20 83 -24 105 -4 23 -11 46
-15 53 -4 7 -11 33 -16 60 -9 51 -42 188 -65 267 -18 63 -42 161 -61 245 -7
36 -18 81 -23 100 -21 73 -43 156 -51 190 -4 19 -15 61 -24 93 -9 31 -23 83
-32 115 -9 31 -20 73 -24 92 -5 19 -16 60 -25 90 -25 85 -65 231 -75 270 -5
19 -16 60 -25 90 -9 30 -20 69 -24 85 -7 27 -27 97 -66 225 -7 25 -21 72 -30
105 -10 33 -21 64 -26 69 -5 6 -9 24 -9 41 0 17 -4 35 -8 41 -4 5 -16 36 -26
69 -10 33 -25 83 -34 110 -8 28 -18 59 -22 70 -5 11 -20 61 -35 110 -40 130
-104 330 -132 405 -12 36 -23 72 -23 81 0 8 -4 19 -9 25 -5 5 -16 36 -26 69
-10 33 -24 71 -31 85 -7 14 -20 52 -30 85 -9 33 -21 67 -25 75 -5 8 -20 51
-34 95 -14 44 -30 89 -35 100 -5 11 -27 72 -50 135 -39 109 -57 157 -85 225
-7 17 -18 46 -25 65 -7 19 -19 49 -26 67 -8 17 -14 36 -14 42 0 6 -4 19 -9 29
-5 9 -17 35 -26 57 -9 22 -20 49 -25 60 -5 11 -25 63 -45 115 -21 52 -43 109
-50 125 -7 17 -29 71 -50 120 -42 102 -51 123 -94 218 -17 38 -31 74 -31 81 0
6 -4 16 -9 22 -5 5 -25 48 -45 96 -20 47 -53 124 -75 170 -21 46 -49 106 -61
133 -40 89 -140 299 -157 330 -22 40 -28 53 -48 100 -21 50 -59 124 -142 285
-36 69 -97 186 -136 260 -39 74 -80 151 -92 170 -11 19 -29 51 -39 70 -9 19
-25 49 -35 65 -10 17 -32 55 -48 85 -17 30 -47 82 -66 115 -19 33 -43 76 -53
95 -10 19 -22 37 -25 40 -3 3 -9 12 -13 20 -4 8 -12 24 -19 35 -7 11 -29 49
-50 85 -21 36 -50 84 -65 107 -15 23 -55 89 -90 145 -88 145 -86 142 -93 148
-3 3 -14 21 -25 40 -10 19 -21 37 -25 40 -3 3 -50 73 -104 155 -134 204 -393
571 -508 720 -21 28 -71 93 -110 145 -39 52 -74 97 -77 100 -3 3 -30 36 -60
75 -87 111 -332 403 -380 455 -14 14 -50 55 -80 91 -30 35 -77 89 -106 119
-28 30 -86 93 -129 140 -44 47 -263 269 -487 494 -412 413 -484 487 -593 611
-178 204 -249 293 -349 445 -41 63 -79 120 -83 126 -8 10 -20 31 -78 139 -28
50 -54 110 -125 280 -11 27 -34 96 -56 171 l-19 61 -65 16 c-36 9 -99 23 -140
32 -41 9 -91 20 -110 25 -103 25 -140 32 -185 37 -27 3 -54 9 -60 14 -5 5 -28
9 -51 9 -24 0 -55 5 -71 11 -15 6 -57 15 -93 20 -36 4 -110 15 -165 24 -55 10
-131 21 -170 27 -71 10 -1055 23 -1055 14z"/>
<path d="M7305 20015 c-52 -19 -174 -58 -250 -80 -33 -10 -69 -21 -80 -26 -11
-4 -45 -15 -75 -25 -30 -9 -68 -22 -85 -29 -16 -7 -43 -17 -60 -23 -16 -6 -64
-22 -105 -37 -104 -37 -130 -47 -312 -121 -65 -26 -119 -53 -122 -59 -8 -21
22 -288 42 -375 6 -25 16 -72 22 -105 7 -33 21 -96 32 -140 11 -44 24 -98 28
-120 4 -22 13 -53 19 -70 6 -16 25 -73 42 -125 31 -96 72 -208 88 -245 5 -11
15 -36 22 -55 57 -157 241 -532 327 -665 6 -11 15 -27 19 -35 4 -8 22 -38 40
-67 18 -29 33 -54 33 -57 0 -15 391 -579 420 -606 3 -3 36 -43 73 -90 95 -118
122 -152 144 -175 10 -11 47 -54 83 -95 59 -68 83 -96 158 -179 138 -154 522
-541 677 -682 39 -35 122 -111 184 -169 63 -58 126 -114 140 -125 29 -21 82
-67 116 -100 12 -11 37 -33 56 -49 18 -15 54 -47 79 -70 25 -22 62 -54 83 -69
21 -16 45 -36 55 -46 9 -9 60 -53 112 -97 52 -43 97 -81 100 -84 8 -9 234
-197 364 -304 67 -55 123 -102 126 -106 3 -3 43 -37 90 -75 47 -38 87 -72 90
-75 3 -3 46 -40 95 -82 587 -499 859 -746 1315 -1198 296 -293 723 -746 899
-955 24 -27 57 -66 75 -85 43 -46 348 -409 413 -490 6 -8 40 -49 74 -90 34
-41 79 -97 100 -125 40 -53 203 -263 217 -280 28 -34 293 -390 363 -488 46
-65 123 -173 171 -240 48 -67 91 -129 95 -137 15 -30 88 -135 96 -138 4 -2 7
-8 7 -14 0 -6 13 -27 29 -47 15 -20 59 -85 97 -144 38 -60 76 -119 84 -132
105 -164 330 -525 330 -530 0 -4 11 -21 25 -39 14 -18 25 -36 25 -40 0 -3 12
-25 27 -49 15 -23 33 -51 39 -62 6 -11 34 -58 61 -105 61 -104 88 -152 173
-305 103 -185 129 -233 183 -335 27 -52 70 -133 95 -180 39 -73 133 -260 243
-483 33 -66 49 -96 61 -117 4 -8 11 -22 14 -30 4 -8 24 -53 46 -100 72 -153
110 -235 118 -255 4 -11 19 -45 33 -75 36 -76 117 -258 148 -330 11 -25 24
-53 29 -62 6 -10 10 -22 10 -28 0 -6 11 -33 25 -62 14 -28 25 -55 25 -60 0 -4
11 -31 24 -60 13 -29 36 -84 51 -123 15 -38 33 -82 41 -97 8 -14 14 -31 14
-37 0 -6 11 -34 24 -63 28 -64 44 -103 91 -233 20 -55 41 -109 46 -120 13 -29
80 -216 86 -240 3 -11 9 -29 14 -40 25 -56 69 -182 69 -197 0 -9 4 -19 9 -23
5 -3 13 -20 17 -37 3 -18 10 -39 14 -48 5 -8 20 -53 34 -100 15 -47 33 -101
40 -120 8 -19 26 -75 41 -125 14 -49 30 -99 34 -110 5 -11 17 -49 26 -85 9
-36 21 -74 25 -85 12 -33 33 -98 41 -130 4 -16 14 -52 23 -80 36 -123 68 -234
82 -285 8 -30 19 -68 24 -85 17 -60 62 -231 70 -270 11 -50 34 -142 56 -220 9
-33 19 -80 23 -105 4 -25 10 -50 14 -57 4 -6 12 -33 17 -60 6 -26 17 -77 26
-113 21 -91 32 -136 44 -200 5 -30 16 -77 23 -105 l13 -50 150 141 c82 78 176
170 209 205 32 35 101 108 152 161 51 54 95 109 99 123 8 33 0 142 -21 280 -9
61 -19 130 -21 155 -4 41 -20 145 -44 291 -6 30 -10 71 -10 90 0 19 -5 50 -10
69 -6 19 -13 58 -16 85 -3 28 -9 70 -14 95 -5 25 -16 90 -25 145 -16 98 -37
207 -56 293 -5 23 -9 53 -9 66 0 14 -6 51 -14 83 -7 32 -19 83 -25 113 -6 30
-21 100 -32 155 -11 55 -25 120 -30 145 -5 25 -16 74 -24 110 -29 126 -67 295
-74 335 -4 23 -10 46 -14 52 -4 7 -11 31 -17 55 -5 24 -16 72 -25 108 -9 36
-18 79 -21 95 -3 17 -9 39 -14 50 -5 11 -16 49 -25 85 -9 36 -22 85 -29 110
-8 25 -19 63 -25 85 -25 90 -92 322 -101 345 -4 14 -16 52 -26 85 -21 73 -112
350 -127 385 -5 14 -12 36 -14 50 -2 13 -8 29 -12 35 -5 5 -23 53 -41 105 -18
52 -37 99 -41 105 -5 5 -9 17 -9 27 0 10 -4 26 -9 36 -5 9 -16 35 -24 57 -51
134 -76 196 -106 267 -12 26 -21 49 -21 53 0 3 -8 24 -19 48 -10 23 -29 67
-41 97 -12 30 -36 83 -51 118 -16 34 -29 64 -29 67 0 2 -20 48 -45 102 -25 54
-50 107 -55 118 -12 28 -237 490 -267 550 -38 73 -123 234 -188 350 -67 123
-198 350 -261 455 -18 30 -50 84 -70 120 -21 36 -41 67 -44 70 -3 3 -35 52
-70 110 -65 107 -301 465 -379 575 -23 33 -69 98 -102 145 -119 171 -355 492
-456 619 -24 31 -47 61 -51 66 -4 6 -34 44 -67 85 -33 41 -71 89 -85 107 -70
89 -126 159 -136 170 -6 6 -49 57 -95 114 -46 56 -147 176 -224 267 -77 90
-159 187 -183 216 -24 28 -62 72 -85 97 -102 111 -127 139 -202 224 -43 50
-84 95 -91 100 -6 6 -33 35 -59 65 -26 30 -79 89 -118 130 -39 41 -100 107
-136 145 -404 431 -1112 1141 -1564 1569 -18 17 -113 108 -212 201 -98 94
-219 208 -269 255 -482 455 -1320 1289 -1479 1474 -42 48 -83 94 -136 151 -67
72 -165 183 -252 285 -35 41 -69 80 -75 85 -39 34 -461 577 -580 745 -136 193
-389 583 -401 619 -3 9 -12 23 -18 31 -7 8 -26 39 -41 68 -16 29 -38 69 -49
90 -11 20 -43 78 -71 127 -28 50 -69 128 -91 175 -99 206 -133 282 -133 294 0
6 -4 16 -9 22 -5 5 -30 61 -56 124 -25 63 -50 124 -55 135 -4 11 -19 49 -32
85 -22 59 -27 65 -53 67 -17 1 -48 -4 -70 -12z"/>
<path d="M13035 19961 c42 -121 147 -312 252 -461 168 -239 300 -386 810 -897
398 -399 492 -496 663 -683 173 -188 203 -222 265 -295 33 -38 62 -72 65 -75
6 -6 97 -115 150 -180 19 -24 58 -71 85 -104 28 -34 73 -90 100 -126 27 -36
68 -88 90 -115 61 -77 109 -141 225 -300 17 -22 33 -44 38 -50 51 -64 224
-315 380 -550 69 -104 129 -191 134 -193 4 -2 8 -8 8 -13 0 -12 62 -113 72
-117 4 -2 8 -8 8 -13 0 -6 18 -37 40 -69 22 -32 40 -64 40 -69 0 -6 5 -11 10
-11 6 0 10 -4 10 -9 0 -5 30 -58 67 -117 56 -92 163 -278 288 -499 52 -91 114
-206 222 -410 69 -130 329 -654 382 -770 23 -49 46 -98 51 -107 6 -10 10 -25
10 -33 0 -8 4 -15 9 -15 5 0 12 -11 15 -25 6 -22 27 -71 106 -240 15 -33 35
-78 44 -100 10 -22 26 -57 37 -78 10 -22 19 -43 19 -48 0 -5 11 -32 24 -61 13
-29 61 -143 106 -253 45 -110 86 -209 91 -220 4 -11 22 -56 39 -100 17 -44 35
-89 39 -100 5 -11 14 -36 21 -55 7 -19 19 -49 26 -67 8 -17 14 -38 14 -46 0
-9 4 -18 9 -22 5 -3 13 -20 17 -37 3 -18 10 -39 14 -48 21 -43 61 -145 90
-230 5 -14 27 -77 50 -140 22 -63 61 -176 86 -250 25 -74 49 -144 53 -155 14
-34 33 -89 38 -110 2 -11 9 -29 13 -40 5 -11 23 -65 40 -120 18 -55 35 -107
39 -115 4 -8 16 -42 26 -75 9 -33 25 -85 35 -115 10 -30 32 -102 50 -160 17
-58 36 -115 41 -128 5 -13 9 -31 9 -41 0 -10 7 -32 15 -47 8 -16 15 -39 15
-51 0 -12 4 -24 9 -27 5 -4 12 -25 16 -48 4 -23 11 -49 15 -58 13 -24 40 -121
40 -141 0 -10 4 -20 9 -23 5 -3 11 -20 14 -38 2 -18 9 -46 15 -63 16 -45 54
-175 63 -215 4 -19 15 -60 24 -90 9 -30 19 -66 22 -80 2 -14 8 -34 12 -45 8
-20 27 -89 41 -155 5 -19 15 -60 25 -90 18 -63 29 -101 49 -185 8 -33 22 -87
31 -120 10 -33 21 -76 26 -95 36 -151 59 -247 78 -320 12 -47 27 -105 32 -130
6 -25 17 -70 24 -100 26 -100 57 -234 65 -280 4 -25 12 -58 18 -75 6 -16 16
-57 23 -90 6 -33 18 -82 25 -109 8 -27 14 -60 14 -73 0 -13 4 -31 9 -41 5 -9
15 -44 21 -77 15 -72 24 -117 45 -210 8 -38 20 -90 25 -115 5 -25 17 -79 26
-120 23 -107 53 -256 73 -360 5 -25 14 -61 20 -80 6 -19 11 -49 11 -66 0 -17
6 -37 13 -43 16 -12 22 -2 64 109 30 79 132 386 163 490 12 41 27 86 32 100 6
14 14 41 18 60 5 19 15 60 25 90 16 56 21 74 50 190 8 36 20 81 25 100 25 97
42 169 50 210 5 25 16 77 25 115 9 39 20 96 25 128 6 33 13 63 16 68 6 10 -11
96 -26 134 -5 11 -16 47 -25 80 -44 153 -68 231 -76 247 -5 10 -9 25 -9 34 0
15 -22 89 -41 139 -4 11 -14 43 -23 70 -9 28 -32 97 -52 155 -20 58 -40 119
-44 135 -8 30 -95 286 -107 315 -14 34 -64 176 -69 195 -3 11 -9 29 -13 40 -5
11 -18 49 -31 85 -55 162 -64 187 -77 220 -32 80 -52 134 -60 165 -2 11 -8 29
-13 40 -33 83 -78 208 -103 285 -8 25 -21 59 -27 75 -19 46 -25 61 -76 200
-26 72 -51 134 -56 139 -4 6 -8 18 -8 27 0 10 -11 44 -24 76 -38 93 -71 178
-126 328 -29 77 -58 154 -65 170 -7 17 -25 62 -40 100 -15 39 -31 79 -36 90
-5 11 -29 74 -54 140 -25 66 -50 124 -56 129 -5 6 -9 18 -9 27 0 10 -16 54
-35 99 -19 45 -35 86 -35 90 0 5 -14 39 -31 77 -43 96 -63 146 -194 473 -21
52 -42 99 -46 104 -5 6 -9 17 -9 25 0 8 -9 34 -20 58 -11 24 -29 62 -40 86
-11 24 -20 47 -20 52 0 5 -9 28 -20 52 -11 24 -28 62 -39 86 -10 23 -28 63
-40 89 -11 26 -21 51 -21 54 0 3 -6 20 -14 37 -45 99 -66 148 -66 153 0 8 -26
69 -56 129 -13 28 -24 53 -24 57 0 4 -15 39 -34 80 -18 40 -63 141 -99 223
-36 83 -77 177 -92 210 -15 33 -34 76 -42 95 -9 19 -29 62 -44 96 -16 33 -29
66 -29 72 0 7 -4 12 -10 12 -5 0 -10 6 -10 13 0 8 -6 27 -14 43 -12 25 -111
244 -178 394 -42 93 -216 465 -318 675 -26 55 -67 141 -90 190 -37 80 -50 106
-82 165 -4 8 -44 92 -89 185 -94 196 -543 1094 -598 1195 -5 8 -18 33 -29 55
-11 22 -41 81 -67 130 -26 50 -75 142 -108 205 -128 246 -288 548 -345 650
-14 25 -43 79 -65 120 -22 41 -48 85 -58 98 -15 20 -310 212 -325 212 -3 0
-18 8 -32 19 -34 23 -204 121 -302 174 -41 21 -109 57 -150 79 -41 22 -79 44
-84 49 -6 5 -18 9 -27 9 -10 0 -19 3 -21 8 -7 16 -430 214 -657 307 -120 49
-127 52 -179 78 -19 9 -41 17 -51 17 -9 0 -21 4 -26 9 -6 5 -37 18 -70 29 -33
12 -112 40 -175 63 -63 22 -142 50 -175 61 -33 11 -69 23 -80 27 -11 5 -60 21
-110 36 -49 15 -108 34 -130 41 -23 8 -50 14 -62 14 -21 0 -22 -1 -8 -39z"/>
<path d="M5615 19346 c-121 -61 -276 -143 -345 -181 -164 -90 -168 -92 -215
-120 -22 -14 -69 -42 -105 -62 -36 -20 -67 -40 -70 -43 -3 -4 -30 -21 -60 -38
-30 -17 -68 -42 -84 -55 l-29 -24 17 -89 c9 -49 22 -116 27 -149 15 -84 28
-151 45 -215 7 -30 23 -93 35 -140 12 -47 23 -98 26 -115 3 -16 11 -44 19 -62
8 -17 14 -37 14 -43 0 -7 11 -47 25 -89 70 -215 86 -263 115 -341 17 -47 35
-96 40 -110 17 -52 139 -349 181 -440 54 -119 266 -543 315 -630 77 -139 313
-525 371 -606 24 -34 43 -65 43 -68 0 -4 5 -12 11 -19 8 -10 91 -126 181 -255
13 -18 28 -39 33 -45 6 -7 43 -57 84 -112 41 -55 111 -145 156 -200 44 -55
110 -136 145 -180 35 -44 67 -82 70 -85 3 -3 30 -34 60 -70 30 -36 58 -67 61
-70 3 -3 35 -39 70 -80 35 -41 71 -82 79 -90 8 -9 53 -58 100 -109 225 -247
614 -642 871 -885 202 -192 256 -242 379 -356 68 -63 139 -129 157 -146 17
-17 69 -64 115 -104 46 -41 110 -99 143 -130 33 -30 96 -86 140 -125 88 -77
177 -157 185 -165 3 -3 43 -39 90 -80 75 -67 151 -135 200 -180 9 -8 49 -44
90 -80 41 -36 95 -83 120 -106 25 -23 115 -103 200 -180 85 -76 182 -163 215
-193 34 -31 90 -83 126 -116 36 -33 107 -98 159 -145 51 -47 102 -94 114 -105
12 -11 82 -76 156 -145 139 -129 827 -814 960 -956 102 -108 248 -269 296
-324 21 -25 79 -90 129 -145 50 -55 113 -127 140 -160 28 -33 57 -66 65 -75 8
-8 33 -38 55 -65 22 -28 45 -55 51 -62 6 -6 47 -56 91 -110 45 -54 102 -123
127 -153 25 -30 85 -107 133 -170 49 -63 93 -119 100 -125 7 -5 29 -33 50 -62
21 -29 90 -121 154 -205 63 -84 172 -232 242 -328 107 -148 158 -220 301 -425
54 -78 186 -276 186 -280 0 -3 22 -35 48 -72 69 -97 282 -438 282 -451 0 -6 4
-12 8 -14 7 -3 55 -80 228 -366 24 -40 44 -75 44 -79 0 -3 17 -33 38 -67 21
-34 42 -68 45 -76 4 -8 15 -28 25 -45 31 -50 74 -128 167 -300 18 -33 47 -87
65 -120 18 -33 49 -89 68 -125 60 -112 335 -661 384 -765 103 -219 128 -274
128 -280 0 -3 17 -42 39 -88 104 -222 121 -259 121 -266 0 -4 11 -31 25 -59
14 -29 25 -58 25 -65 0 -7 4 -17 9 -22 4 -6 23 -46 41 -90 33 -82 61 -147 85
-200 8 -16 33 -79 56 -140 23 -60 49 -128 59 -150 9 -22 32 -80 49 -130 18
-49 36 -98 41 -107 6 -10 10 -24 10 -32 0 -8 8 -29 17 -48 27 -54 30 -62 38
-98 4 -19 11 -41 15 -50 19 -38 31 -69 50 -125 10 -33 44 -132 75 -220 31 -88
59 -169 62 -180 2 -11 8 -29 13 -40 4 -11 22 -67 40 -125 17 -58 36 -113 41
-122 5 -10 9 -25 9 -33 0 -9 17 -68 39 -133 21 -64 44 -137 51 -162 7 -25 14
-51 16 -58 6 -22 36 -13 88 26 28 21 78 58 111 83 33 24 62 47 65 50 3 3 30
24 60 46 30 23 67 52 81 65 15 13 72 61 128 106 62 52 103 93 107 109 6 22 -8
105 -36 213 -5 19 -11 51 -14 70 -3 19 -13 67 -22 105 -9 39 -20 88 -24 110
-4 22 -16 72 -25 110 -9 39 -20 88 -25 110 -5 22 -27 112 -50 200 -23 88 -52
201 -65 250 -22 85 -35 135 -72 265 -8 30 -19 69 -24 85 -9 35 -23 81 -43 150
-26 89 -48 169 -54 195 -2 14 -8 30 -12 35 -5 6 -11 27 -15 48 -4 20 -11 40
-16 43 -5 3 -9 13 -9 22 0 16 -191 612 -211 657 -4 11 -18 49 -30 85 -12 36
-25 69 -30 75 -5 5 -9 18 -9 30 0 12 -4 25 -9 30 -4 6 -16 35 -25 65 -10 30
-24 69 -31 85 -7 17 -41 104 -75 195 -34 91 -68 178 -76 194 -8 16 -14 35 -14
43 0 7 -4 21 -10 31 -5 9 -15 33 -23 52 -104 256 -244 586 -310 730 -182 399
-203 441 -377 790 -179 360 -198 395 -396 755 -115 210 -112 205 -134 240 -10
17 -33 56 -50 88 -17 32 -46 82 -64 110 -18 29 -44 72 -58 97 -14 25 -44 75
-67 112 -22 37 -41 72 -41 78 0 5 -4 10 -8 10 -5 0 -14 10 -20 23 -65 125
-550 869 -671 1030 -23 29 -41 57 -41 60 0 4 -26 41 -58 84 -32 43 -74 103
-95 133 -20 30 -48 69 -62 85 -13 17 -29 35 -33 40 -5 6 -25 33 -44 60 -85
122 -197 270 -227 302 -12 12 -21 25 -21 28 0 3 -26 38 -58 78 -54 66 -223
277 -350 435 -29 37 -56 69 -60 72 -5 3 -21 23 -37 45 -16 22 -37 48 -46 57
-9 9 -57 63 -105 120 -49 57 -91 105 -94 108 -3 3 -30 34 -61 70 -31 36 -71
80 -88 99 -53 57 -178 194 -201 221 -107 124 -613 640 -860 876 -166 158 -350
327 -484 445 -22 19 -51 45 -65 58 -65 59 -159 141 -191 167 -19 16 -76 65
-125 109 -91 81 -150 131 -260 223 -33 27 -166 139 -295 247 -129 109 -300
253 -380 319 -178 150 -162 136 -350 297 -370 317 -595 524 -925 850 -203 200
-214 212 -376 389 -197 216 -382 444 -560 690 -147 202 -276 395 -323 480 -10
19 -21 37 -25 40 -17 13 -116 197 -280 516 -80 157 -202 460 -252 624 -11 36
-24 73 -29 82 -6 10 -10 25 -10 34 0 9 -6 30 -14 47 -8 18 -17 46 -20 62 -2
17 -20 91 -40 165 -19 74 -39 160 -45 190 -11 56 -14 71 -31 200 -18 125 -19
130 -43 129 -12 0 -121 -51 -242 -113z"/>
<path d="M4295 18555 c-49 -36 -101 -73 -115 -82 -49 -35 -276 -207 -345 -262
-86 -68 -91 -72 -191 -157 -45 -38 -115 -98 -157 -134 -65 -55 -77 -69 -77
-95 0 -17 4 -35 9 -40 5 -6 12 -29 14 -52 3 -23 8 -47 12 -52 3 -6 10 -32 15
-59 8 -45 40 -165 75 -282 9 -30 20 -68 25 -85 8 -28 29 -96 81 -260 12 -38
33 -93 46 -122 13 -28 23 -58 23 -65 0 -8 7 -23 15 -34 8 -10 15 -27 15 -36 0
-9 11 -43 24 -75 13 -32 37 -89 52 -128 15 -38 34 -79 41 -90 7 -11 13 -25 13
-32 0 -7 15 -45 34 -85 18 -40 44 -95 56 -123 29 -66 278 -566 289 -579 4 -6
22 -36 38 -66 40 -73 134 -237 167 -288 14 -23 26 -44 26 -47 0 -3 18 -33 40
-66 22 -33 40 -62 40 -65 0 -2 24 -41 54 -87 29 -45 69 -107 89 -137 20 -30
63 -95 96 -143 34 -48 61 -90 61 -92 0 -8 321 -449 426 -585 120 -156 493
-607 582 -705 21 -22 52 -58 71 -80 161 -189 534 -585 906 -960 165 -166 714
-702 800 -779 16 -15 99 -93 184 -174 240 -228 330 -313 406 -382 39 -34 86
-79 106 -99 34 -35 279 -267 424 -401 39 -36 99 -93 134 -127 34 -34 133 -128
220 -210 608 -575 1445 -1438 1831 -1888 47 -54 105 -122 130 -149 25 -28 63
-74 85 -101 22 -27 45 -55 50 -61 43 -47 152 -177 200 -240 17 -21 53 -65 80
-99 28 -33 73 -89 100 -124 28 -35 66 -85 85 -110 20 -25 87 -113 150 -196 63
-82 118 -154 122 -160 22 -27 304 -413 331 -455 18 -26 58 -85 90 -131 32 -46
74 -106 92 -134 19 -27 39 -54 43 -60 11 -13 264 -394 277 -417 6 -9 62 -98
125 -198 63 -100 120 -189 125 -198 6 -9 24 -39 40 -67 39 -66 117 -189 124
-195 3 -3 19 -32 36 -65 16 -33 47 -88 67 -123 21 -34 38 -65 38 -69 0 -3 6
-14 14 -22 8 -9 24 -34 36 -56 13 -22 54 -96 93 -165 97 -172 106 -190 172
-315 32 -60 61 -114 66 -120 10 -14 385 -764 440 -881 26 -55 68 -144 94 -199
26 -55 55 -118 65 -140 10 -22 27 -60 38 -85 11 -25 32 -74 47 -110 32 -77 45
-107 78 -180 14 -30 50 -118 82 -195 31 -77 66 -159 76 -183 11 -24 27 -62 35
-85 30 -80 96 -242 105 -259 5 -10 9 -23 9 -29 0 -6 6 -25 14 -42 15 -36 42
-104 61 -157 15 -41 63 -166 75 -195 5 -11 16 -45 26 -75 9 -30 23 -70 31 -88
l13 -32 48 26 c84 45 134 75 278 160 77 46 146 84 152 84 5 0 12 3 14 8 3 6
65 50 110 77 136 81 209 133 214 152 5 20 -6 72 -36 163 -5 14 -16 52 -25 85
-10 33 -28 92 -41 132 -13 39 -24 78 -24 86 0 8 -7 28 -15 43 -8 16 -15 37
-15 47 0 9 -4 25 -10 35 -5 9 -23 62 -40 117 -16 55 -45 143 -64 195 -18 52
-40 118 -49 145 -9 28 -30 88 -48 135 -17 47 -34 96 -37 110 -2 14 -8 30 -12
35 -4 6 -17 37 -28 70 -11 34 -26 74 -33 90 -25 63 -36 91 -49 125 -19 53 -51
134 -141 360 -45 113 -87 219 -94 235 -13 33 -36 86 -67 155 -11 25 -24 54
-28 65 -81 190 -106 246 -151 342 -22 46 -39 85 -39 88 0 3 -30 67 -66 142
-37 76 -106 221 -155 323 -49 102 -94 192 -99 200 -5 8 -46 87 -91 175 -117
226 -162 313 -174 333 -5 10 -57 103 -115 207 -57 105 -106 192 -110 195 -3 3
-12 19 -20 35 -8 17 -31 57 -51 90 -19 33 -38 67 -42 75 -8 16 -12 23 -111
182 -36 59 -66 110 -66 113 0 3 -21 37 -47 77 -26 40 -52 82 -58 93 -38 68
-301 472 -428 658 -26 38 -47 70 -47 73 0 3 -11 19 -25 37 -13 18 -67 93 -120
167 -52 74 -102 144 -111 155 -9 11 -28 38 -42 60 -23 34 -297 402 -364 490
-41 53 -222 280 -228 285 -3 3 -18 23 -35 45 -25 34 -105 132 -165 202 -10 11
-40 47 -66 80 -52 64 -137 164 -199 233 -22 25 -65 75 -96 110 -31 36 -67 77
-80 91 -40 43 -182 200 -209 230 -173 195 -829 858 -1076 1089 -144 135 -318
295 -384 355 -36 32 -72 65 -81 74 -39 39 -301 275 -504 456 -196 175 -300
267 -405 360 -62 55 -122 109 -134 121 -11 12 -48 45 -81 75 -190 169 -230
205 -245 219 -9 8 -56 51 -106 94 -49 44 -98 89 -109 100 -11 12 -45 43 -75
70 -405 365 -1072 1025 -1385 1371 -49 54 -115 126 -145 160 -31 33 -100 114
-155 180 -54 66 -104 125 -110 130 -17 15 -173 208 -244 301 -33 43 -91 120
-130 171 -66 84 -203 276 -328 457 -167 241 -462 749 -574 986 -17 36 -52 110
-79 165 -26 55 -65 138 -85 185 -20 47 -40 93 -46 102 -5 10 -9 25 -9 33 0 8
-4 15 -9 15 -5 0 -13 14 -16 32 -4 18 -11 39 -16 48 -11 21 -95 238 -115 297
-8 26 -28 84 -43 128 -16 44 -34 100 -41 125 -7 25 -26 83 -40 130 -15 47 -33
110 -40 140 -7 30 -16 63 -21 72 -5 10 -9 24 -9 32 0 7 -6 36 -14 62 -13 47
-31 125 -57 244 -6 30 -17 82 -25 115 -8 33 -15 73 -16 89 -2 16 -7 31 -13 32
-5 2 -50 -26 -100 -61z"/>
<path d="M16350 18304 c0 -6 134 -267 220 -429 163 -304 732 -1444 860 -1720
18 -38 63 -133 100 -210 80 -166 155 -325 225 -480 42 -92 100 -217 206 -444
27 -57 49 -105 49 -107 0 -2 11 -27 24 -56 13 -29 33 -74 45 -100 11 -27 31
-69 42 -95 12 -27 30 -66 39 -88 24 -54 65 -144 94 -207 13 -29 43 -98 66
-153 23 -55 51 -120 62 -145 11 -25 25 -56 30 -70 6 -14 17 -37 24 -52 8 -14
14 -33 14 -42 0 -9 5 -16 10 -16 6 0 10 -5 10 -11 0 -6 7 -26 15 -45 8 -19 21
-49 29 -66 8 -18 25 -58 38 -88 14 -30 53 -125 88 -210 34 -85 73 -177 85
-205 13 -27 37 -86 55 -130 18 -44 37 -84 41 -90 5 -5 9 -17 9 -26 0 -10 6
-30 14 -46 22 -42 57 -123 72 -166 7 -20 20 -52 27 -70 8 -17 27 -63 42 -102
15 -38 38 -94 51 -123 13 -29 24 -59 24 -67 0 -7 4 -16 9 -19 5 -3 16 -29 25
-58 10 -29 23 -66 30 -83 8 -16 37 -91 66 -165 29 -74 58 -148 65 -165 7 -16
29 -75 50 -130 21 -55 41 -109 46 -120 5 -11 18 -45 29 -75 11 -30 24 -64 29
-75 5 -11 13 -31 18 -45 6 -14 16 -38 22 -55 7 -16 22 -56 33 -90 11 -33 24
-64 28 -70 4 -5 20 -48 35 -95 16 -47 32 -89 37 -94 4 -6 8 -17 8 -25 0 -9 7
-29 15 -45 8 -15 15 -33 15 -38 0 -6 6 -24 14 -41 8 -18 26 -66 41 -107 15
-41 30 -84 35 -95 5 -11 26 -69 48 -130 21 -60 62 -173 90 -251 29 -77 52
-146 52 -151 0 -6 7 -24 15 -39 8 -16 15 -36 15 -45 0 -9 3 -18 6 -22 6 -5 62
-161 105 -292 10 -33 23 -67 27 -75 4 -8 50 -144 102 -302 52 -158 98 -288
101 -288 14 0 21 40 25 155 3 66 9 131 14 145 11 32 25 467 25 775 0 288 -15
744 -24 765 -4 8 -8 62 -10 120 -1 58 -6 121 -11 140 -5 19 -14 85 -19 145
-13 139 -29 258 -41 313 -6 23 -10 61 -10 84 0 23 -4 55 -9 72 -6 17 -24 110
-41 206 -18 96 -38 204 -46 240 -8 36 -19 85 -24 110 -6 25 -19 83 -31 130
-12 47 -25 103 -29 125 -9 47 -45 191 -64 255 -8 25 -19 65 -26 90 -7 25 -18
63 -26 85 -8 23 -14 50 -14 62 0 12 -4 25 -10 28 -5 3 -10 14 -10 23 0 9 -7
30 -15 46 -8 15 -15 34 -15 42 0 12 -24 86 -88 274 -16 47 -36 103 -45 125 -8
22 -27 74 -42 115 -15 41 -33 89 -41 107 -8 17 -14 35 -14 40 0 5 -11 33 -25
61 -14 29 -25 56 -25 60 0 5 -6 22 -14 38 -15 30 -41 88 -96 214 -60 138 -91
204 -130 285 -21 44 -50 103 -63 130 -25 53 -105 205 -178 340 -23 44 -47 90
-53 102 -6 13 -14 23 -18 23 -5 0 -8 5 -8 11 0 9 -128 229 -197 339 -13 19
-26 41 -30 49 -7 16 -84 135 -107 166 -8 11 -46 67 -83 125 -108 166 -339 481
-470 643 -35 42 -93 114 -130 160 -36 45 -87 105 -112 133 -25 28 -64 73 -86
99 -22 27 -53 62 -70 80 -16 17 -73 78 -125 135 -195 213 -562 569 -740 720
-41 35 -79 68 -85 74 -5 6 -30 27 -55 47 -25 20 -56 47 -70 58 -50 44 -98 83
-165 133 -5 5 -28 24 -50 43 -42 38 -95 70 -95 59z"/>
<path d="M2924 17389 c-212 -216 -240 -246 -319 -335 -33 -37 -81 -91 -106
-119 -42 -47 -173 -203 -247 -294 l-32 -40 10 -208 c6 -114 13 -215 16 -223 3
-8 8 -73 10 -145 2 -71 8 -193 14 -270 23 -334 33 -975 26 -1715 -7 -765 -8
-830 -26 -1205 -6 -115 -12 -286 -15 -380 -2 -93 -9 -240 -14 -325 -6 -85 -15
-236 -21 -335 -5 -99 -15 -243 -21 -320 -6 -77 -15 -219 -19 -315 -5 -96 -16
-265 -25 -375 -9 -110 -20 -270 -24 -356 -5 -86 -12 -169 -15 -185 -6 -29 -20
-211 -36 -479 -5 -77 -11 -149 -14 -160 -3 -11 -10 -92 -16 -180 -18 -276 -43
-604 -60 -775 -10 -101 -28 -324 -40 -505 -16 -232 -31 -412 -40 -474 -5 -37
-10 -104 -10 -151 0 -47 -4 -121 -10 -165 -5 -44 -12 -118 -14 -165 -3 -47
-10 -143 -16 -215 -21 -251 -32 -412 -39 -585 -5 -96 -12 -199 -16 -227 -5
-39 -4 -53 4 -53 7 0 53 31 104 68 174 129 232 170 288 205 31 20 63 42 70 50
21 20 408 277 418 277 5 0 11 3 13 8 3 8 108 78 153 103 42 22 62 69 70 158 8
108 33 334 45 411 6 36 12 92 14 125 2 33 9 96 15 140 7 44 17 118 22 165 6
47 17 127 25 178 8 51 14 112 14 135 0 23 4 58 9 77 5 19 12 70 15 114 4 43 9
83 12 88 3 5 10 46 15 91 4 45 15 134 24 197 9 63 20 151 25 195 4 44 11 87
14 95 3 8 7 38 9 65 3 28 10 84 16 125 6 41 18 129 26 195 19 147 31 227 46
325 7 41 16 109 20 150 10 106 28 241 34 265 4 11 10 63 16 115 5 52 16 145
24 205 9 61 20 153 25 205 6 52 13 102 16 110 3 8 8 44 10 80 3 36 7 79 10 95
3 17 9 71 14 120 4 50 13 128 19 175 14 115 28 245 46 430 8 85 20 196 25 245
5 50 12 128 16 175 3 47 8 99 11 115 4 33 15 186 32 455 6 96 14 184 16 195 3
11 10 137 15 280 5 143 14 379 21 525 12 279 6 908 -11 1100 -5 58 -9 159 -9
225 -1 66 -8 185 -16 265 -8 80 -20 188 -25 240 -6 52 -10 115 -10 140 0 25
-4 61 -10 80 -5 19 -14 80 -19 135 -9 84 -40 303 -71 485 -10 62 -30 168 -40
210 -4 19 -16 70 -26 113 -10 43 -21 80 -26 83 -4 3 -8 13 -8 22 0 9 -7 30
-15 46 -8 15 -15 36 -15 46 0 10 -6 31 -14 47 -19 37 -88 257 -146 463 -12 41
-25 89 -30 105 -5 17 -12 47 -15 67 -14 74 -20 70 -211 -123z"/>
<path d="M1858 16120 c-86 -118 -218 -314 -298 -440 -29 -47 -63 -101 -75
-120 -53 -83 -181 -304 -238 -410 -22 -41 -50 -91 -61 -110 -12 -19 -53 -97
-91 -173 l-70 -137 3 -123 c2 -67 8 -178 13 -247 5 -69 12 -341 15 -605 6
-435 3 -592 -22 -1130 -4 -104 -15 -237 -35 -435 -6 -63 -15 -164 -20 -225 -5
-60 -15 -164 -24 -230 -8 -66 -19 -161 -24 -211 -6 -50 -12 -101 -15 -115 -4
-13 -11 -62 -17 -109 -23 -186 -45 -325 -83 -531 -9 -48 -16 -97 -16 -110 0
-12 -4 -36 -9 -53 -11 -37 -30 -132 -41 -201 -8 -55 -26 -139 -65 -315 -15
-63 -30 -135 -34 -160 -4 -25 -13 -55 -19 -67 -7 -12 -12 -34 -12 -49 0 -15
-4 -41 -10 -58 -9 -29 -43 -164 -76 -301 -20 -81 -59 -224 -99 -360 -8 -27
-22 -77 -31 -110 -9 -33 -20 -69 -24 -80 -22 -63 -40 -125 -40 -142 0 -10 -4
-23 -8 -29 -4 -5 -16 -36 -26 -69 -10 -33 -29 -91 -41 -130 -12 -38 -29 -92
-38 -120 -9 -27 -25 -75 -37 -105 -23 -59 -24 -47 16 -235 8 -38 19 -92 25
-120 6 -27 14 -63 19 -80 5 -16 16 -61 25 -100 9 -38 23 -95 31 -125 8 -30 20
-73 25 -95 33 -126 82 -288 169 -550 109 -332 129 -388 176 -493 13 -29 24
-57 24 -62 0 -5 11 -33 24 -62 13 -29 31 -73 41 -98 9 -25 28 -67 40 -95 25
-53 67 -147 92 -205 33 -75 85 -186 94 -200 5 -8 12 -22 15 -30 30 -72 95
-186 108 -188 9 -2 40 16 69 41 29 24 98 81 154 126 116 93 109 79 117 256 8
191 26 467 36 550 6 44 10 116 10 160 0 44 7 161 15 260 9 99 20 236 25 305 6
69 15 184 20 255 6 72 15 191 20 265 15 235 26 384 61 780 13 153 29 359 39
500 22 319 31 427 35 445 3 11 9 85 15 165 18 278 40 552 44 559 3 4 6 52 6
107 1 54 8 160 15 234 20 191 35 404 35 480 1 36 5 97 10 135 6 39 14 162 20
275 15 337 29 569 40 679 5 58 10 172 10 255 0 83 5 205 10 271 5 66 12 278
16 470 3 193 10 374 15 404 12 72 12 1503 0 1567 -5 28 -10 140 -11 249 -1
110 -6 272 -12 360 -5 88 -13 228 -17 310 l-6 150 -47 -65z"/>
<path d="M3932 15398 c32 -368 44 -610 55 -1143 6 -310 -5 -777 -28 -1180 -6
-99 -14 -254 -19 -345 -4 -91 -10 -183 -14 -205 -3 -22 -8 -92 -11 -155 -3
-63 -10 -135 -15 -160 -5 -25 -9 -76 -10 -114 0 -38 -4 -107 -10 -155 -21
-180 -32 -289 -40 -381 -17 -187 -30 -306 -40 -359 -5 -30 -10 -78 -10 -107 0
-29 -4 -75 -10 -101 -9 -44 -25 -166 -36 -283 -5 -51 -30 -243 -44 -340 -5
-36 -12 -96 -15 -134 -3 -38 -10 -77 -15 -87 -6 -10 -10 -45 -10 -78 0 -33 -4
-80 -10 -103 -5 -24 -16 -97 -24 -163 -29 -231 -46 -361 -55 -425 -6 -36 -15
-103 -21 -150 -6 -47 -17 -130 -25 -185 -29 -198 -57 -412 -66 -490 -4 -44
-13 -104 -19 -134 -5 -29 -10 -71 -10 -92 0 -21 -4 -58 -10 -81 -11 -51 -28
-179 -40 -298 -5 -47 -16 -137 -25 -200 -9 -63 -20 -153 -24 -200 -17 -176
-32 -306 -42 -348 -12 -55 -12 -102 1 -102 14 0 104 51 108 62 2 4 8 8 13 8 5
0 44 22 87 48 42 27 109 66 147 87 39 22 79 45 90 52 11 7 27 15 35 19 8 5 38
23 67 41 29 18 55 33 58 33 3 0 56 29 118 63 61 35 146 82 187 104 41 22 93
51 115 63 112 64 329 180 337 180 22 0 37 56 48 190 7 80 16 181 20 225 4 44
13 159 19 255 7 96 16 197 22 223 5 26 9 76 9 110 0 60 8 180 31 477 7 80 15
237 19 350 4 113 12 297 18 410 26 465 32 669 37 1135 3 270 10 540 16 600 19
196 -3 1191 -30 1375 -5 36 -15 108 -21 160 -18 150 -54 341 -89 470 -7 25
-19 70 -28 100 -50 184 -141 433 -194 530 -5 8 -20 38 -33 65 -14 28 -33 64
-43 80 -50 86 -78 131 -84 135 -3 3 -14 19 -23 35 -9 17 -25 44 -36 60 -11 17
-23 37 -27 45 -3 8 -27 47 -53 85 -26 39 -50 77 -54 85 -4 8 -12 24 -19 35
-52 84 -132 224 -170 295 -24 46 -49 86 -53 87 -6 2 -6 -31 -2 -79z"/>
<path d="M686 13952 c-11 -26 -30 -69 -43 -96 -12 -28 -23 -57 -23 -66 0 -9
-4 -20 -8 -25 -5 -6 -24 -57 -42 -115 -18 -58 -37 -109 -42 -114 -4 -6 -8 -18
-8 -28 0 -10 -4 -26 -9 -36 -14 -27 -61 -171 -105 -327 -10 -33 -21 -69 -26
-80 -5 -11 -11 -31 -14 -45 -8 -38 -28 -113 -36 -135 -8 -19 -22 -75 -55 -220
-9 -38 -20 -83 -25 -100 -5 -16 -14 -57 -21 -90 -6 -33 -16 -75 -21 -93 -5
-18 -14 -56 -18 -85 -5 -29 -16 -88 -25 -132 -9 -44 -20 -108 -25 -141 -4 -34
-10 -67 -14 -73 -4 -7 -12 -44 -17 -84 -22 -179 -30 -234 -39 -261 -6 -16 -10
-51 -10 -79 0 -27 -4 -77 -10 -111 -43 -275 -45 -331 -45 -1206 0 -754 2 -858
18 -965 9 -66 18 -137 20 -158 3 -46 18 -52 29 -12 9 31 26 91 54 193 9 31 20
71 24 87 5 17 16 57 25 90 10 33 21 76 25 95 5 19 16 62 25 95 9 33 20 78 25
100 5 22 16 69 25 105 9 36 20 83 25 105 4 22 16 72 25 110 28 118 46 198 55
245 4 25 13 70 18 100 6 30 20 100 32 155 11 55 23 114 26 130 2 17 9 53 14
80 18 94 53 300 61 365 5 36 15 110 24 165 9 55 19 138 24 185 5 47 13 114 19
150 21 129 52 414 63 570 4 63 15 225 25 360 17 245 27 790 22 1222 l-3 217
-19 -47z"/>
<path d="M5140 13647 c0 -6 5 -28 10 -47 9 -31 20 -105 36 -245 3 -22 12 -98
22 -170 15 -116 17 -240 15 -1184 -1 -613 -7 -1136 -13 -1250 -6 -108 -15
-304 -20 -436 -16 -408 -31 -728 -35 -765 -3 -19 -7 -107 -10 -195 -3 -88 -8
-169 -11 -180 -2 -11 -9 -96 -14 -190 -5 -93 -12 -183 -15 -200 -3 -16 -9 -95
-14 -175 -18 -279 -32 -435 -42 -478 -5 -24 -7 -47 -4 -52 3 -5 186 82 408
192 221 110 439 219 484 241 45 22 85 47 89 56 8 19 29 191 44 350 6 63 15
133 20 155 5 23 10 78 10 122 0 45 4 104 9 131 6 28 11 91 12 141 1 51 6 111
11 134 10 51 22 313 39 852 9 312 9 482 0 775 -14 417 -25 641 -35 686 -5 27
-13 93 -36 315 -7 67 -14 107 -48 300 -18 95 -36 140 -76 183 -114 123 -145
158 -184 203 -24 27 -58 65 -76 84 -18 19 -64 71 -102 115 -38 44 -71 82 -74
85 -9 8 -262 312 -305 365 -79 99 -95 113 -95 82z"/>
<path d="M6455 12155 c3 -33 10 -100 15 -150 4 -49 13 -144 18 -210 27 -296
34 -573 29 -1080 -7 -648 -29 -1082 -77 -1535 -6 -58 -15 -154 -20 -215 -5
-60 -13 -131 -18 -157 -5 -25 -6 -51 -3 -57 7 -10 163 49 185 70 6 5 18 9 28
9 10 0 18 4 18 9 0 5 10 13 23 17 12 3 47 18 77 31 30 14 69 31 85 38 17 7 64
28 105 47 41 19 111 49 155 67 118 48 119 49 106 111 -17 78 -14 572 4 732 9
73 18 140 21 148 3 8 10 40 14 70 8 54 23 118 55 235 27 103 32 119 45 150 6
17 11 31 10 33 -1 2 3 15 8 30 6 15 23 61 37 102 37 100 99 228 157 322 27 43
48 82 48 88 0 5 5 10 10 10 31 0 16 16 -226 245 -181 172 -214 204 -639 625
l-277 275 7 -60z"/>
<path d="M7840 10817 c-17 -24 -119 -230 -131 -262 -3 -11 -14 -38 -22 -60
-40 -101 -60 -163 -64 -195 -3 -19 -9 -39 -13 -45 -4 -5 -15 -46 -24 -90 -10
-44 -22 -97 -27 -119 -11 -41 -25 -135 -38 -256 -10 -89 -9 -555 1 -565 4 -4
33 3 65 15 85 31 260 90 318 106 97 28 191 53 275 74 47 11 103 26 125 32 40
11 90 21 200 38 33 5 76 14 95 20 19 5 53 10 75 10 22 0 56 5 75 10 19 6 121
15 225 21 105 6 198 14 208 17 15 6 -3 27 -95 117 -105 102 -374 358 -598 570
-52 49 -126 119 -165 155 -38 37 -115 109 -170 162 -55 52 -131 123 -170 159
-38 35 -80 74 -93 86 -28 28 -33 28 -52 0z"/>
<path d="M9020 9214 c-8 -2 -64 -8 -125 -13 -196 -17 -366 -46 -585 -102 -47
-11 -101 -25 -120 -29 -40 -10 -104 -27 -140 -39 -14 -5 -86 -28 -160 -51 -74
-23 -143 -46 -152 -51 -10 -5 -23 -9 -29 -9 -10 0 -246 -90 -314 -120 -43 -19
-292 -123 -335 -140 -25 -9 -76 -32 -115 -50 -99 -45 -151 -68 -225 -102 -283
-128 -911 -435 -1305 -638 -88 -45 -236 -122 -330 -170 -157 -80 -229 -118
-360 -190 -27 -15 -93 -50 -145 -78 -149 -78 -201 -107 -331 -182 -67 -38
-123 -70 -126 -70 -3 0 -125 -69 -188 -107 -11 -7 -27 -15 -35 -19 -8 -4 -31
-17 -50 -29 -19 -12 -55 -33 -80 -47 -25 -14 -121 -71 -214 -127 -93 -55 -172
-101 -176 -101 -5 0 -10 -3 -12 -8 -2 -6 -355 -232 -417 -267 -26 -15 -185
-119 -191 -125 -5 -5 -137 -95 -169 -115 -26 -16 -165 -109 -176 -118 -5 -4
-27 -21 -49 -37 -21 -17 -42 -30 -45 -30 -4 0 -16 -8 -27 -18 -10 -10 -48 -38
-84 -62 -70 -47 -182 -130 -241 -176 -20 -16 -48 -38 -64 -49 -70 -51 -372
-287 -410 -322 -11 -10 -54 -45 -95 -78 -109 -86 -110 -88 -110 -106 0 -16 27
-71 71 -145 13 -22 29 -49 36 -59 85 -143 147 -244 195 -316 32 -48 58 -92 58
-98 0 -5 4 -11 9 -13 4 -1 20 -21 34 -43 109 -164 219 -315 230 -315 5 0 61
35 124 78 63 42 122 82 131 87 38 24 264 172 359 236 57 38 106 69 109 69 3 0
23 14 44 30 21 17 41 30 45 30 4 0 25 13 48 29 35 24 158 102 232 148 11 7 64
40 118 75 120 78 168 106 187 115 8 4 17 9 20 13 4 6 153 100 244 155 85 51
299 182 320 195 68 42 137 80 146 80 5 0 10 3 10 8 0 4 17 16 38 27 20 11 39
23 42 26 3 3 48 31 100 61 137 79 270 158 305 179 17 10 37 22 45 26 8 4 53
30 100 58 47 29 126 74 175 100 50 27 117 65 150 85 33 20 67 39 75 43 8 4 29
15 45 26 17 10 48 28 70 41 116 66 198 111 265 147 110 59 174 95 185 103 6 4
44 25 85 47 41 22 95 52 120 65 25 14 74 41 110 60 36 19 95 51 133 71 142 77
197 107 352 187 88 45 189 99 225 118 36 19 74 40 85 45 30 15 43 22 265 135
380 194 490 249 1075 532 105 51 215 104 245 117 60 28 152 71 305 143 55 26
116 53 135 60 19 7 40 17 45 21 8 6 131 61 355 162 25 11 77 35 117 53 40 19
74 34 77 34 2 0 40 16 83 36 43 20 98 44 123 54 25 10 72 30 105 44 33 15 69
31 80 36 11 4 36 15 55 23 19 9 58 25 85 37 27 12 63 27 80 34 16 7 42 18 58
24 15 7 27 17 27 25 0 7 -22 34 -50 60 -27 26 -50 49 -50 51 0 1 -89 93 -197
203 l-198 200 -97 11 c-88 11 -432 15 -468 6z"/>
<path d="M10295 8392 c-6 -5 -73 -35 -150 -66 -77 -32 -144 -62 -149 -67 -6
-5 -16 -9 -22 -9 -7 0 -48 -16 -91 -36 -43 -20 -91 -42 -108 -49 -128 -54
-185 -79 -216 -96 -20 -10 -41 -19 -47 -19 -10 0 -80 -31 -249 -111 -46 -21
-85 -39 -88 -39 -2 0 -46 -20 -97 -44 -51 -24 -149 -69 -218 -101 -69 -31
-156 -72 -195 -90 -38 -18 -104 -49 -145 -68 -41 -19 -145 -68 -230 -109 -85
-42 -195 -94 -245 -117 -49 -23 -108 -51 -130 -63 -22 -11 -112 -56 -200 -100
-233 -117 -371 -187 -444 -225 -35 -18 -70 -33 -77 -33 -7 0 -14 -3 -16 -8 -1
-4 -91 -52 -198 -106 -107 -54 -199 -102 -205 -106 -5 -4 -62 -34 -125 -67
-194 -102 -331 -175 -415 -220 -44 -24 -100 -54 -125 -66 -25 -12 -47 -25 -50
-28 -3 -3 -18 -12 -35 -21 -16 -8 -55 -28 -85 -43 -30 -16 -71 -38 -90 -50
-19 -12 -69 -40 -110 -62 -78 -42 -104 -57 -230 -128 -85 -48 -120 -68 -205
-115 -61 -34 -226 -129 -280 -161 -16 -10 -41 -24 -55 -32 -35 -19 -79 -44
-195 -112 -55 -32 -125 -72 -155 -90 -30 -17 -146 -86 -257 -153 -112 -67
-206 -122 -209 -122 -3 0 -20 -10 -37 -23 -43 -30 -66 -44 -104 -64 -18 -9
-33 -20 -33 -25 0 -4 -5 -8 -10 -8 -6 0 -124 -70 -263 -156 -138 -86 -264
-164 -279 -173 -30 -18 -214 -133 -348 -219 -97 -62 -171 -111 -425 -278 -99
-65 -192 -125 -206 -134 -105 -62 -309 -208 -309 -221 0 -8 15 -33 33 -55 19
-21 65 -78 103 -125 86 -107 146 -178 205 -243 25 -28 68 -77 95 -108 27 -31
58 -57 69 -57 16 -1 678 322 695 339 8 8 634 320 643 320 4 0 24 11 45 24 21
13 179 95 352 182 173 87 317 162 318 166 2 5 9 8 15 8 16 0 181 82 185 92 2
5 12 8 22 8 10 0 20 4 22 8 4 10 130 72 145 72 6 0 13 3 15 8 3 6 79 46 614
318 110 55 269 137 354 181 154 80 280 145 645 333 105 54 231 119 280 145
156 81 417 216 505 261 47 24 103 53 125 65 70 38 78 42 185 97 169 87 254
132 270 142 8 5 38 20 65 33 28 13 95 47 150 76 55 30 152 81 215 114 63 33
153 80 200 105 171 90 278 146 405 212 72 37 160 84 197 104 66 35 167 89 399
210 64 34 147 77 185 98 38 20 89 47 114 60 25 12 47 25 50 28 3 3 52 29 110
59 58 29 141 73 185 96 168 89 242 129 305 163 36 19 117 61 180 94 63 33 121
66 129 73 14 14 -6 43 -114 165 -22 25 -65 75 -95 110 -54 64 -195 224 -215
246 -52 55 -163 180 -173 195 -13 19 -60 26 -77 11z"/>
<path d="M11125 7356 c-44 -24 -116 -63 -160 -86 -44 -24 -100 -54 -125 -68
-39 -22 -131 -70 -340 -178 -30 -16 -57 -31 -60 -34 -3 -3 -32 -19 -65 -36
-120 -60 -435 -227 -535 -282 -25 -13 -106 -56 -180 -95 -128 -66 -252 -132
-385 -202 -63 -33 -167 -88 -420 -221 -294 -153 -411 -214 -505 -261 -52 -27
-97 -50 -100 -53 -3 -3 -43 -25 -90 -49 -186 -96 -509 -264 -680 -353 -58 -31
-188 -98 -290 -150 -102 -52 -223 -115 -270 -140 -47 -25 -168 -88 -270 -140
-102 -52 -286 -147 -410 -210 -124 -64 -324 -166 -445 -228 -121 -62 -330
-169 -465 -238 -276 -141 -620 -316 -665 -339 -16 -8 -48 -24 -70 -35 -132
-68 -1212 -612 -1427 -719 -141 -71 -260 -134 -264 -141 -7 -12 226 -246 401
-403 43 -39 104 -94 135 -122 105 -97 106 -97 152 -83 23 6 64 22 92 35 28 13
78 35 111 50 33 14 74 33 90 40 133 62 248 115 251 115 3 0 75 32 254 112 25
11 81 37 125 58 44 20 103 47 130 60 91 41 199 91 265 122 36 17 88 41 115 53
28 13 97 46 155 73 58 28 155 73 215 102 345 163 475 226 1050 510 462 227
573 283 620 312 17 10 37 21 45 24 45 19 456 230 865 445 61 32 139 73 175 91
36 18 67 36 70 39 3 3 19 12 35 21 79 40 274 142 310 163 22 12 65 36 95 52
30 17 101 55 157 86 56 32 104 57 108 57 4 0 19 8 33 19 15 10 72 41 126 70
55 28 104 55 110 60 6 5 43 25 81 45 39 20 77 41 85 47 21 13 272 154 290 162
8 4 31 17 50 28 19 12 64 37 100 57 36 20 113 63 171 97 58 34 112 65 120 68
8 4 28 15 44 26 17 10 48 28 70 41 57 31 147 83 166 95 9 6 34 20 55 33 22 12
46 27 54 32 13 8 182 107 275 160 17 9 100 59 185 110 85 52 184 110 220 130
36 20 115 67 175 105 61 37 160 98 220 134 61 36 112 69 113 73 2 5 9 8 17 8
7 0 18 7 25 15 10 12 3 26 -37 77 -26 34 -57 75 -68 90 -87 121 -158 213 -205
270 -30 36 -80 99 -110 138 -51 68 -79 101 -83 99 -1 0 -38 -20 -82 -43z"/>
<path d="M11865 6416 c-16 -13 -46 -32 -65 -43 -19 -10 -53 -30 -75 -44 -22
-14 -80 -50 -130 -79 -77 -46 -167 -100 -240 -148 -11 -6 -27 -15 -35 -19 -8
-4 -62 -36 -120 -71 -58 -36 -125 -76 -150 -90 -25 -14 -58 -34 -75 -44 -16
-10 -37 -21 -45 -25 -8 -4 -44 -25 -80 -46 -67 -41 -201 -120 -280 -165 -25
-14 -62 -36 -82 -49 -21 -12 -39 -23 -42 -23 -2 0 -61 -34 -131 -75 -69 -41
-128 -75 -129 -75 -2 0 -41 -22 -88 -49 -77 -44 -115 -66 -248 -139 -25 -14
-62 -36 -82 -49 -21 -12 -40 -23 -43 -23 -3 0 -22 -10 -43 -23 -20 -13 -71
-42 -112 -64 -106 -57 -166 -91 -233 -129 -32 -19 -60 -34 -62 -34 -2 0 -30
-15 -62 -34 -82 -47 -146 -82 -395 -215 -40 -21 -91 -48 -113 -61 -50 -29
-132 -73 -260 -140 -149 -78 -262 -138 -335 -178 -36 -19 -135 -71 -220 -115
-85 -44 -218 -113 -295 -153 -173 -90 -1398 -702 -1555 -777 -265 -126 -359
-171 -433 -208 -43 -22 -84 -39 -91 -39 -8 0 -16 -3 -18 -7 -3 -8 -22 -18
-130 -67 -144 -65 -275 -126 -455 -212 -62 -30 -115 -54 -117 -54 -2 0 -39
-16 -83 -36 -43 -20 -103 -47 -133 -61 -30 -13 -62 -28 -71 -33 -9 -5 -98 -45
-197 -89 -100 -44 -190 -85 -199 -90 -10 -5 -29 -13 -43 -19 -14 -6 -56 -25
-93 -41 -38 -17 -72 -31 -76 -31 -5 0 -14 -7 -21 -15 -9 -11 -9 -17 2 -28 18
-18 305 -230 408 -302 124 -87 228 -159 247 -170 9 -5 22 -14 27 -18 19 -15
208 -134 291 -184 44 -26 82 -50 85 -53 3 -3 16 -11 30 -19 14 -8 48 -27 75
-43 112 -64 106 -63 187 -46 40 9 116 28 168 43 52 14 113 30 135 35 37 8 115
30 225 64 25 7 65 19 90 26 81 23 375 121 392 130 10 6 23 10 30 10 7 0 67 21
133 46 66 25 168 63 228 85 59 21 122 45 140 53 65 30 234 96 244 96 6 0 16 7
23 15 7 8 19 15 26 15 8 0 49 16 91 36 43 19 94 42 113 51 282 125 798 389
1052 540 59 34 109 63 112 63 5 0 62 35 156 95 19 12 78 48 130 80 81 49 332
211 380 245 8 6 59 41 112 78 174 121 395 281 451 327 31 25 58 45 61 45 6 0
20 11 95 75 20 17 54 44 76 60 21 16 46 36 55 45 9 8 36 31 61 50 39 31 296
247 309 260 3 3 75 68 160 144 204 184 419 393 645 628 128 132 465 509 492
548 9 14 21 30 28 35 13 12 239 292 310 385 27 36 52 67 55 70 3 3 14 19 26
35 72 104 99 141 115 159 11 11 19 31 19 44 0 19 -61 119 -113 187 -4 5 -33
45 -63 88 -61 86 -78 92 -129 53z"/>
<path d="M12300 5669 c-41 -55 -84 -112 -95 -127 -21 -28 -86 -110 -135 -172
-16 -19 -43 -54 -62 -77 -69 -87 -154 -188 -178 -213 -14 -14 -45 -50 -70 -79
-25 -30 -50 -59 -56 -65 -5 -6 -43 -49 -84 -96 -41 -47 -86 -97 -100 -111 -14
-15 -71 -76 -128 -137 -150 -160 -396 -403 -581 -572 -51 -47 -100 -92 -109
-101 -10 -9 -39 -36 -67 -59 -27 -23 -81 -70 -119 -104 -92 -82 -111 -98 -133
-116 -11 -8 -64 -52 -119 -97 -153 -127 -224 -182 -433 -341 -187 -142 -266
-199 -416 -300 -38 -26 -72 -50 -75 -53 -11 -13 -316 -212 -465 -304 -88 -54
-184 -113 -212 -131 -29 -19 -55 -34 -57 -34 -3 0 -42 -22 -88 -50 -46 -27
-87 -50 -92 -50 -5 0 -17 -6 -25 -14 -9 -8 -50 -32 -91 -54 -41 -21 -111 -58
-155 -82 -146 -79 -309 -160 -321 -160 -7 0 -14 -3 -16 -7 -3 -9 -70 -42 -243
-124 -60 -28 -119 -56 -129 -61 -52 -27 -320 -138 -332 -138 -8 0 -14 -4 -14
-10 0 -5 -5 -10 -11 -10 -6 0 -25 -6 -42 -14 -18 -7 -68 -28 -112 -46 -44 -18
-94 -39 -112 -46 -17 -8 -34 -14 -37 -14 -5 0 -105 -37 -211 -79 -23 -9 -54
-20 -180 -62 -49 -17 -99 -34 -110 -39 -11 -5 -45 -16 -75 -26 -30 -9 -64 -20
-75 -24 -25 -10 -197 -64 -250 -78 -22 -7 -62 -18 -90 -27 -27 -8 -72 -20 -99
-28 -28 -8 -52 -19 -54 -26 -2 -6 16 -20 40 -31 23 -12 50 -25 58 -29 17 -10
116 -57 205 -96 33 -15 78 -35 100 -45 110 -48 139 -61 250 -105 109 -42 149
-59 210 -85 11 -5 54 -20 95 -35 66 -23 100 -36 175 -65 11 -4 63 -22 115 -38
88 -29 135 -44 185 -62 11 -4 47 -15 80 -25 127 -37 161 -48 177 -56 10 -5 28
-9 40 -9 12 0 40 -6 63 -14 22 -8 60 -19 85 -26 25 -6 68 -17 95 -25 28 -7
104 -25 170 -40 66 -15 132 -31 147 -35 15 -5 58 -11 95 -15 l68 -6 86 83 c72
69 205 194 330 308 15 14 84 79 154 145 70 66 173 163 228 215 56 52 122 115
148 140 25 25 104 99 175 165 71 66 154 145 185 175 31 30 108 103 170 161 63
59 144 135 180 170 37 35 104 100 150 143 108 102 469 446 534 509 27 27 137
133 244 235 107 103 235 227 285 275 50 49 172 166 271 260 408 391 1021 997
1139 1127 37 41 80 89 95 105 15 17 71 86 124 155 54 69 102 130 107 137 6 7
10 14 10 17 0 6 44 75 60 93 25 30 79 150 74 165 -7 25 -175 299 -319 523
-102 159 -128 195 -139 195 -6 0 -45 -45 -86 -101z"/>
<path d="M13005 4619 c-43 -66 -193 -267 -220 -295 -5 -6 -32 -37 -60 -69
-124 -145 -356 -382 -720 -734 -94 -91 -244 -237 -335 -325 -91 -89 -284 -276
-430 -416 -145 -140 -322 -311 -394 -380 -71 -69 -143 -138 -160 -155 -18 -16
-79 -75 -137 -130 -58 -55 -188 -179 -289 -275 -102 -96 -203 -193 -225 -215
-23 -22 -79 -76 -126 -120 -46 -44 -156 -148 -244 -231 -88 -83 -172 -162
-186 -175 -15 -13 -95 -89 -180 -169 -84 -80 -167 -158 -185 -175 -105 -98
-301 -282 -378 -356 -50 -47 -120 -112 -156 -145 -36 -32 -66 -61 -68 -65 -2
-5 14 -11 35 -14 21 -4 58 -10 83 -15 69 -13 206 -32 300 -40 47 -5 150 -16
230 -25 80 -9 222 -20 315 -25 94 -5 233 -12 310 -15 l140 -7 60 51 c33 29 83
73 110 99 28 26 79 72 114 102 36 30 74 64 86 75 33 31 185 167 235 211 25 21
54 48 66 59 11 11 49 45 84 75 36 30 94 82 130 115 36 33 101 92 144 130 43
39 93 84 111 100 18 17 47 41 64 55 18 14 58 50 89 80 32 30 107 100 167 155
139 128 259 243 388 375 56 57 127 129 157 160 66 67 233 252 346 386 23 27
50 59 60 70 136 156 472 643 527 764 4 8 21 38 37 65 17 28 33 57 36 65 4 8
20 42 37 75 42 83 43 85 63 130 33 74 56 139 111 305 73 225 73 223 73 252 0
14 7 45 15 68 8 23 15 60 15 81 0 21 5 41 10 44 6 3 10 35 10 71 0 64 -2 69
-57 159 -7 11 -26 47 -44 80 -17 33 -40 72 -50 87 -11 14 -19 30 -19 35 0 4
-11 21 -23 37 l-23 29 -49 -74z"/>
<path d="M13520 3786 c0 -15 -4 -34 -9 -44 -5 -9 -24 -64 -42 -122 -18 -58
-36 -112 -39 -120 -4 -8 -14 -31 -23 -50 -9 -19 -24 -59 -34 -87 -10 -29 -21
-53 -25 -53 -5 0 -8 -6 -8 -14 0 -30 -205 -422 -257 -492 -13 -17 -23 -36 -23
-42 0 -7 -4 -12 -10 -12 -5 0 -10 -4 -10 -9 0 -9 -128 -208 -151 -235 -5 -6
-23 -31 -39 -56 -16 -25 -38 -55 -49 -67 -12 -12 -21 -26 -21 -32 0 -5 -4 -11
-9 -13 -5 -1 -53 -60 -107 -129 -148 -189 -253 -310 -439 -509 -109 -116 -471
-475 -581 -575 -54 -49 -110 -101 -124 -115 -31 -30 -121 -112 -175 -160 -22
-19 -87 -77 -145 -129 -58 -52 -123 -110 -145 -130 -22 -20 -72 -63 -110 -96
-39 -33 -95 -83 -125 -111 -30 -28 -102 -93 -160 -144 -150 -132 -190 -170
-190 -182 0 -7 26 -9 78 -4 42 3 133 9 202 11 147 6 442 32 521 45 30 6 86 10
123 10 37 0 76 5 87 11 11 6 59 14 107 19 119 12 141 18 184 51 128 101 618
594 763 769 43 52 135 158 151 174 13 14 220 273 312 391 100 129 358 513 491
730 50 83 96 157 101 165 17 27 136 243 187 340 113 211 133 254 133 275 0 21
-22 72 -68 160 -8 17 -19 37 -23 45 -5 8 -42 87 -84 175 -42 88 -83 171 -90
185 -7 14 -33 63 -57 109 -48 90 -68 110 -68 67z"/>
<path d="M14087 2613 c-9 -15 -44 -79 -79 -143 -20 -36 -50 -90 -67 -120 -18
-30 -35 -63 -38 -72 -3 -10 -9 -18 -14 -18 -5 0 -9 -4 -9 -10 0 -5 -19 -40
-42 -77 -23 -38 -46 -77 -52 -88 -48 -87 -347 -531 -440 -654 -39 -52 -84
-113 -100 -135 -60 -82 -352 -445 -376 -466 -3 -3 -34 -39 -69 -80 -61 -72
-227 -251 -345 -373 -83 -86 -80 -88 64 -52 36 9 83 20 105 25 54 11 189 47
245 65 25 9 53 15 63 15 9 0 25 4 35 9 23 13 117 41 135 41 8 0 28 7 43 15 16
8 37 15 47 15 9 0 25 4 35 9 9 5 78 28 152 52 74 23 139 46 145 51 5 4 17 8
27 8 9 0 32 6 50 14 18 8 51 21 73 29 181 67 496 196 510 208 5 5 15 9 21 9 7
0 55 20 106 44 51 24 116 53 143 66 85 38 199 93 221 107 23 15 21 32 -11 108
-8 17 -22 57 -33 90 -37 109 -83 239 -96 270 -8 17 -26 64 -41 105 -25 68 -41
108 -65 165 -29 71 -100 248 -115 290 -10 28 -22 55 -25 60 -4 6 -11 21 -15
35 -4 14 -18 48 -30 75 -12 28 -35 79 -50 115 -52 123 -57 135 -73 168 -16 32
-27 39 -35 25z"/>
</g>
</svg>
