<?xml version="1.0" standalone="no"?>
<!DOCTYPE svg PUBLIC "-//W3C//DTD SVG 20010904//EN"
 "http://www.w3.org/TR/2001/REC-SVG-20010904/DTD/svg10.dtd">
<svg version="1.0" xmlns="http://www.w3.org/2000/svg"
 width="897.000000pt" height="193.000000pt" viewBox="0 0 897.000000 193.000000"
 preserveAspectRatio="xMidYMid meet">
<metadata>
Created by potrace 1.16, written by Peter Selinger 2001-2019
</metadata>
<g transform="translate(0.000000,193.000000) scale(0.100000,-0.100000)"
fill="#1db954" stroke="#1db954">
<path d="M274 1792 c-121 -42 -189 -144 -187 -283 2 -110 58 -205 146 -248
208 -101 446 23 447 232 l0 57 -165 0 -165 0 0 -60 0 -60 88 0 87 -1 -31 -28
c-58 -53 -149 -52 -210 1 -74 65 -64 198 19 248 57 35 158 22 196 -24 10 -12
33 -16 93 -16 78 0 79 0 72 22 -43 138 -231 215 -390 160z"/>
<path d="M1454 1792 c-123 -44 -189 -144 -187 -286 1 -56 7 -80 31 -127 l30
-57 -29 -34 c-15 -18 -28 -37 -29 -41 0 -5 42 -8 93 -7 50 1 118 -3 150 -9 83
-15 174 4 239 51 107 75 143 244 79 372 l-29 60 29 35 c16 20 29 39 29 44 0 5
-44 8 -97 7 -54 -1 -134 1 -178 5 -63 4 -91 2 -131 -13z m140 -134 c-4 -7 -44
-58 -88 -112 l-80 -100 -8 30 c-17 61 13 143 65 174 37 23 123 28 111 8z m120
-109 c14 -70 -27 -148 -91 -175 -38 -16 -96 -19 -91 -4 5 17 160 210 168 210
4 0 10 -14 14 -31z"/>
<path d="M2070 1797 c-52 -17 -114 -84 -128 -139 -7 -28 -12 -124 -12 -232 l0
-186 75 0 75 0 0 189 c0 175 1 190 21 215 17 21 29 26 65 26 95 0 104 -23 104
-256 l0 -174 70 0 70 0 0 203 c0 196 -1 205 -25 253 -26 52 -70 88 -126 104
-44 13 -144 11 -189 -3z"/>
<path d="M2640 1797 c-52 -17 -114 -84 -128 -139 -7 -28 -12 -124 -12 -232 l0
-186 75 0 75 0 0 189 c0 175 1 190 21 215 17 21 29 26 65 26 95 0 104 -23 104
-256 l0 -174 70 0 70 0 0 203 c0 196 -1 205 -25 253 -26 52 -70 88 -126 104
-44 13 -144 11 -189 -3z"/>
<path d="M760 1520 l0 -280 75 0 75 0 0 85 c0 83 0 85 24 85 20 0 33 -15 73
-85 l48 -85 89 0 88 0 -18 28 c-9 15 -37 56 -60 91 l-43 65 38 35 c106 99 68
289 -66 329 -23 7 -101 12 -182 12 l-141 0 0 -280z m292 115 c8 -18 9 -35 2
-53 -9 -25 -14 -27 -77 -30 l-67 -3 0 56 0 55 65 0 c60 0 66 -2 77 -25z"/>
<path d="M3080 1520 l0 -280 210 0 210 0 0 65 0 65 -135 0 -135 0 0 45 0 45
110 0 110 0 0 60 0 60 -110 0 -110 0 0 40 0 40 135 0 135 0 0 70 0 70 -210 0
-210 0 0 -280z"/>
<path d="M240 727 c-52 -17 -114 -84 -128 -139 -7 -28 -12 -124 -12 -232 l0
-186 75 0 75 0 0 189 c0 175 1 190 21 215 17 21 29 26 65 26 95 0 104 -23 104
-256 l0 -174 70 0 70 0 0 203 c0 196 -1 205 -25 253 -26 52 -70 88 -126 104
-44 13 -144 11 -189 -3z"/>
<path d="M816 725 c-57 -20 -87 -45 -116 -96 -24 -42 -25 -52 -28 -251 l-3
-208 70 0 71 0 0 75 0 75 105 0 105 0 0 -75 0 -75 76 0 76 0 -4 203 c-3 184
-5 206 -25 243 -28 53 -82 100 -130 113 -53 15 -150 13 -197 -4z m159 -131
c24 -9 45 -58 45 -104 l0 -40 -106 0 -107 0 6 53 c8 67 39 97 102 97 24 0 51
-3 60 -6z"/>
<path d="M1954 722 c-123 -44 -189 -144 -187 -285 2 -121 74 -225 181 -261 58
-20 177 -21 231 -1 83 29 150 99 172 178 40 150 -24 302 -151 360 -63 29 -179
33 -246 9z m193 -142 c107 -65 82 -245 -38 -282 -107 -32 -217 67 -193 175 18
85 67 127 149 127 32 0 62 -7 82 -20z"/>
<path d="M5314 721 c-81 -37 -123 -115 -109 -200 13 -77 64 -115 187 -141 55
-11 88 -30 88 -51 0 -5 -9 -18 -20 -29 -35 -35 -120 -21 -120 20 0 18 -7 20
-75 20 -82 0 -84 -1 -64 -61 16 -47 66 -97 110 -110 20 -6 72 -10 116 -8 95 5
142 30 173 95 57 116 -6 229 -139 249 -74 11 -111 30 -111 57 0 31 18 48 51
48 40 0 59 -10 70 -36 8 -22 14 -24 74 -24 61 0 65 1 65 23 -1 37 -36 103 -66
124 -67 46 -160 56 -230 24z"/>
<path d="M5784 721 c-81 -37 -123 -115 -109 -200 13 -77 64 -115 187 -141 55
-11 88 -30 88 -51 0 -5 -9 -18 -20 -29 -35 -35 -120 -21 -120 20 0 18 -7 20
-75 20 -82 0 -84 -1 -64 -61 16 -47 66 -97 110 -110 20 -6 72 -10 116 -8 95 5
142 30 173 95 57 116 -6 229 -139 249 -74 11 -111 30 -111 57 0 31 18 48 51
48 40 0 59 -10 70 -36 8 -22 14 -24 74 -24 61 0 65 1 65 23 -1 37 -36 103 -66
124 -67 46 -160 56 -230 24z"/>
<path d="M6846 725 c-57 -20 -87 -45 -116 -96 -24 -42 -25 -52 -28 -251 l-3
-208 70 0 71 0 0 75 0 75 105 0 105 0 0 -75 0 -75 76 0 76 0 -4 203 c-3 184
-5 206 -25 243 -28 53 -82 100 -130 113 -53 15 -150 13 -197 -4z m159 -131
c24 -9 45 -58 45 -104 l0 -40 -106 0 -107 0 6 53 c8 67 39 97 102 97 24 0 51
-3 60 -6z"/>
<path d="M1260 450 l0 -280 176 0 c144 0 182 3 211 17 49 23 73 66 73 131 0
60 -11 88 -47 118 l-25 22 23 32 c32 43 34 135 3 177 -40 55 -72 63 -251 63
l-163 0 0 -280z m288 112 c6 -39 -15 -52 -79 -52 l-59 0 0 40 0 41 68 -3 c61
-3 67 -5 70 -26z m10 -184 c7 -7 12 -21 12 -33 0 -35 -20 -45 -92 -45 l-68 0
0 45 0 45 68 0 c40 0 73 -5 80 -12z"/>
<path d="M2440 450 l0 -280 75 0 75 0 0 110 0 110 110 0 110 0 0 65 0 65 -110
0 -110 0 0 35 0 34 133 3 132 3 3 68 3 67 -211 0 -210 0 0 -280z"/>
<path d="M3068 720 c-52 -16 -98 -52 -126 -98 -27 -46 -27 -49 -30 -249 l-3
-203 70 0 71 0 0 75 0 75 95 0 95 0 0 -75 0 -75 210 0 210 0 0 65 0 65 -135 0
-135 0 0 45 0 45 110 0 110 0 0 60 0 60 -110 0 -110 0 0 40 0 40 135 0 135 0
0 70 0 70 -282 -1 c-156 0 -295 -4 -310 -9z m172 -200 l0 -70 -96 0 -97 0 7
48 c9 69 39 92 122 92 l64 0 0 -70z"/>
<path d="M3750 450 l0 -280 205 0 205 0 0 65 0 65 -130 0 -130 0 0 215 0 215
-75 0 -75 0 0 -280z"/>
<path d="M4230 450 l0 -280 205 0 205 0 0 65 0 65 -130 0 -130 0 0 215 0 215
-75 0 -75 0 0 -280z"/>
<path d="M4710 450 l0 -280 210 0 210 0 0 65 0 65 -135 0 -135 0 0 45 0 45
110 0 110 0 0 60 0 60 -110 0 -110 0 0 40 0 40 135 0 135 0 0 70 0 70 -210 0
-210 0 0 -280z"/>
<path d="M6160 450 l0 -280 75 0 74 0 3 106 3 106 74 -106 74 -106 94 0 94 0
-109 143 -109 142 94 120 c133 169 131 155 24 155 l-89 0 -76 -107 -76 -107 0
107 0 107 -75 0 -75 0 0 -280z"/>
<path d="M7290 450 l0 -280 176 0 c144 0 182 3 211 17 49 23 73 66 73 131 0
60 -11 88 -47 118 l-25 22 23 32 c32 43 34 135 3 177 -40 55 -72 63 -251 63
l-163 0 0 -280z m288 112 c6 -39 -15 -52 -79 -52 l-59 0 0 40 0 41 68 -3 c61
-3 67 -5 70 -26z m10 -184 c7 -7 12 -21 12 -33 0 -35 -20 -45 -92 -45 l-68 0
0 45 0 45 68 0 c40 0 73 -5 80 -12z"/>
<path d="M7820 450 l0 -280 210 0 210 0 0 65 0 65 -135 0 -135 0 0 45 0 45
110 0 110 0 0 60 0 60 -110 0 -110 0 0 40 0 40 135 0 135 0 0 70 0 70 -210 0
-210 0 0 -280z"/>
<path d="M8330 450 l0 -280 75 0 75 0 0 85 c0 83 0 85 24 85 20 0 33 -15 73
-85 l48 -85 89 0 88 0 -18 28 c-9 15 -37 56 -60 91 l-43 65 38 35 c106 99 68
289 -66 329 -23 7 -101 12 -182 12 l-141 0 0 -280z m292 115 c8 -18 9 -35 2
-53 -9 -25 -14 -27 -77 -30 l-67 -3 0 56 0 55 65 0 c60 0 66 -2 77 -25z"/>
</g>
</svg>
