<?xml version="1.0" standalone="no"?>
<!DOCTYPE svg PUBLIC "-//W3C//DTD SVG 20010904//EN"
 "http://www.w3.org/TR/2001/REC-SVG-20010904/DTD/svg10.dtd">
<svg version="1.0" xmlns="http://www.w3.org/2000/svg"
 width="2946.000000pt" height="459.000000pt" viewBox="0 0 2946.000000 459.000000"
 preserveAspectRatio="xMidYMid meet">
<metadata>
Created by potrace 1.16, written by Peter Selinger 2001-2019
</metadata>
<g transform="translate(0.000000,459.000000) scale(0.100000,-0.100000)"
fill="#3f4651" stroke="#3f4651">
<path d="M20381 4579 c-721 -81 -1091 -699 -1091 -1824 0 -716 150 -1237 439
-1526 208 -208 457 -299 818 -299 247 0 461 46 732 156 75 31 142 58 149 61 9
4 12 201 12 939 l0 934 -455 0 -455 0 2 -192 3 -193 248 -3 247 -2 0 -605 0
-604 -30 -16 c-47 -24 -201 -62 -306 -76 -112 -14 -272 -7 -354 15 -178 49
-333 180 -427 361 -122 237 -177 511 -189 950 -10 320 18 651 70 858 53 206
123 343 232 453 126 127 292 188 514 188 265 -1 416 -102 494 -330 l21 -62
190 71 c105 39 192 72 194 74 8 6 -22 119 -50 192 -99 248 -307 410 -600 466
-106 20 -298 27 -408 14z"/>
<path d="M1025 4574 c-266 -40 -445 -123 -594 -274 -276 -280 -391 -742 -391
-1565 0 -1024 171 -1494 622 -1704 170 -80 328 -106 598 -98 225 6 341 31 495
106 176 86 300 211 399 401 146 282 206 662 206 1300 0 757 -97 1199 -326
1489 -131 166 -313 275 -544 326 -73 16 -396 29 -465 19z m420 -437 c97 -32
189 -91 250 -160 93 -105 167 -301 200 -527 35 -243 43 -936 14 -1275 -41
-494 -184 -727 -499 -812 -90 -24 -328 -24 -422 0 -175 44 -312 153 -386 309
-83 171 -107 314 -124 715 -13 331 0 859 27 1042 53 366 165 570 370 672 115
57 183 69 350 65 118 -3 153 -7 220 -29z"/>
<path d="M6610 4554 c-14 -2 -52 -9 -85 -15 -230 -39 -442 -172 -559 -348
-103 -155 -156 -348 -156 -573 0 -374 135 -630 441 -834 58 -39 215 -126 349
-194 133 -67 282 -149 330 -181 251 -168 335 -384 263 -679 -48 -202 -183
-343 -361 -381 -111 -23 -318 2 -429 51 -104 46 -198 174 -238 326 -10 38 -19
70 -20 71 -1 2 -87 -26 -191 -61 l-189 -63 1 -51 c2 -64 36 -177 80 -265 114
-227 318 -363 618 -412 122 -20 355 -19 453 1 286 59 503 224 630 479 91 182
136 447 113 669 -32 317 -171 539 -457 729 -55 37 -213 125 -351 196 -284 146
-376 205 -462 298 -190 203 -196 499 -13 682 105 104 228 148 388 138 225 -14
374 -129 435 -334 7 -24 18 -43 24 -43 15 1 396 97 401 102 2 2 -2 37 -10 78
-53 303 -261 505 -606 590 -81 20 -335 36 -399 24z"/>
<path d="M2986 4433 c-10 -120 -216 -3373 -216 -3410 l0 -33 199 0 199 0 6 98
c12 173 105 2111 112 2319 l7 202 92 -367 c51 -202 114 -441 139 -532 39 -137
265 -866 337 -1087 l21 -63 148 0 148 0 21 63 c66 204 295 943 327 1057 20 74
83 315 139 535 l102 399 7 -184 c4 -102 16 -354 26 -560 11 -206 33 -670 49
-1030 17 -360 33 -699 37 -752 l6 -98 199 0 199 0 0 30 c0 35 -206 3295 -216
3413 l-6 77 -197 -2 -196 -3 -320 -1152 c-176 -633 -322 -1150 -324 -1148 -2
2 -141 521 -310 1152 l-306 1148 -211 3 -212 2 -6 -77z"/>
<path d="M7927 4503 c-4 -3 -7 -98 -7 -210 l0 -203 420 0 420 0 0 -1550 0
-1550 210 0 210 0 0 1550 0 1550 415 0 415 0 0 210 0 210 -1038 0 c-571 0
-1042 -3 -1045 -7z"/>
<path d="M10360 2750 l0 -1760 205 0 205 0 0 1760 0 1760 -205 0 -205 0 0
-1760z"/>
<path d="M11380 2750 l0 -1760 855 0 855 0 0 210 0 210 -645 0 -645 0 0 1550
0 1550 -210 0 -210 0 0 -1760z"/>
<path d="M13477 4503 c-4 -3 -7 -795 -7 -1760 l0 -1753 855 0 855 0 0 210 0
210 -645 0 -645 0 0 1550 0 1550 -203 0 c-112 0 -207 -3 -210 -7z"/>
<path d="M15570 2750 l0 -1760 205 0 205 0 0 1760 0 1760 -205 0 -205 0 0
-1760z"/>
<path d="M16590 2750 l0 -1760 195 0 195 0 2 1361 3 1360 650 -1360 650 -1361
223 0 222 0 0 1760 0 1760 -195 0 -195 0 -2 -1360 -3 -1360 -650 1360 -649
1360 -223 0 -223 0 0 -1760z"/>
<path d="M10 90 l0 -80 14390 0 14390 0 0 80 0 80 -14390 0 -14390 0 0 -80z"/>
<path fill="#a1d100" stroke="#a1d100" d="M22670 2760 l0 -1830 410 0 410 0 2 1094 3 1094 550 -1094 550 -1094
453 0 452 0 0 1830 0 1830 -410 0 -410 0 -2 -1097 -3 -1098 -550 1098 -550
1097 -452 0 -453 0 0 -1830z"/>
<path fill="#a1d100" stroke="#a1d100" d="M26050 3311 c0 -1224 1 -1284 20 -1393 65 -381 279 -671 624 -845
438 -221 1057 -218 1494 7 350 180 566 488 621 885 7 48 11 333 11 771 l0 694
311 0 c176 0 309 4 307 9 -7 19 -1071 1102 -1080 1099 -5 -2 -250 -251 -544
-553 l-534 -550 310 -3 310 -2 0 -663 c0 -576 -2 -670 -16 -717 -52 -177 -201
-264 -449 -264 -227 0 -361 69 -434 223 l-26 56 -3 1263 -2 1262 -460 0 -460
0 0 -1279z"/>
</g>
</svg>
