<?xml version="1.0" standalone="no"?>
<!DOCTYPE svg PUBLIC "-//W3C//DTD SVG 20010904//EN"
 "http://www.w3.org/TR/2001/REC-SVG-20010904/DTD/svg10.dtd">
<svg version="1.0" xmlns="http://www.w3.org/2000/svg"
 width="3508.000000pt" height="686.000000pt" viewBox="0 0 3508.000000 686.000000"
 preserveAspectRatio="xMidYMid meet">
<metadata>
Created by potrace 1.16, written by Peter Selinger 2001-2019
</metadata>
<g transform="translate(0.000000,686.000000) scale(0.100000,-0.100000)"
fill="#3f4651" stroke="none">
<path d="M23100 5559 c-506 -53 -846 -382 -996 -965 -127 -496 -124 -1257 7
-1752 106 -403 304 -676 594 -818 185 -90 347 -119 620 -111 253 8 440 52 717
169 l118 50 0 934 0 934 -455 0 -455 0 0 -195 0 -195 250 0 250 0 0 -605 0
-606 -43 -18 c-122 -52 -338 -86 -492 -78 -410 23 -651 321 -739 913 -53 353
-42 888 24 1214 53 258 159 458 302 565 77 58 114 77 202 104 155 48 353 48
481 0 126 -47 222 -152 267 -290 12 -38 25 -68 29 -67 3 2 90 34 193 73 131
49 186 74 186 85 0 38 -44 172 -83 250 -73 150 -230 288 -397 349 -170 62
-364 82 -580 60z"/>
<path d="M3690 5545 c-469 -74 -749 -383 -864 -957 -50 -245 -60 -395 -60
-868 -1 -528 17 -736 85 -998 97 -377 290 -621 582 -736 125 -50 227 -67 427
-73 271 -8 432 18 599 98 337 159 514 466 585 1009 48 365 48 1013 0 1385
-101 793 -460 1159 -1134 1154 -74 -1 -173 -7 -220 -14z m396 -410 c249 -48
412 -217 489 -507 40 -153 55 -287 67 -600 12 -333 -1 -827 -27 -1005 -57
-397 -204 -602 -485 -679 -90 -25 -328 -25 -420 -1 -308 81 -451 302 -501 772
-17 158 -17 961 0 1140 35 376 103 578 247 722 118 120 252 170 456 172 53 1
131 -6 174 -14z"/>
<path d="M9320 5534 c-266 -49 -383 -101 -523 -233 -172 -162 -253 -363 -264
-652 -16 -410 115 -674 442 -890 50 -33 200 -116 335 -184 287 -146 381 -205
470 -294 118 -119 168 -255 156 -422 -12 -165 -69 -311 -157 -404 -97 -102
-210 -141 -382 -132 -295 17 -443 129 -513 387 -10 36 -18 66 -19 67 -1 2 -87
-26 -191 -61 l-189 -63 2 -56 c4 -120 91 -317 188 -425 119 -132 309 -221 541
-252 135 -18 387 -8 488 19 394 109 636 430 676 899 21 251 -17 451 -123 637
-52 91 -214 253 -328 328 -48 32 -201 116 -340 188 -275 142 -359 193 -446
272 -140 128 -205 314 -169 485 46 219 239 371 472 372 84 0 211 -30 269 -65
89 -52 173 -164 206 -272 7 -24 17 -43 23 -43 14 0 397 97 401 102 2 2 -3 41
-11 87 -53 303 -274 510 -629 588 -68 14 -333 26 -385 17z"/>
<path d="M5706 5418 c-10 -113 -216 -3374 -216 -3413 l0 -35 199 0 199 0 6 93
c11 162 105 2114 112 2323 l7 201 98 -386 c53 -212 114 -444 134 -516 36 -126
265 -865 326 -1052 l31 -93 148 0 149 0 55 173 c249 784 297 949 469 1622 l64
250 7 -180 c4 -99 13 -306 21 -460 8 -154 30 -615 50 -1025 19 -410 37 -791
41 -847 l6 -103 199 0 199 0 0 32 c0 35 -206 3291 -216 3411 l-6 77 -197 0
-196 0 -319 -1150 c-176 -633 -323 -1147 -326 -1143 -4 5 -144 522 -311 1150
l-304 1143 -212 0 -211 0 -6 -72z"/>
<path d="M10640 5280 l0 -210 420 0 420 0 0 -1550 0 -1550 210 0 210 0 0 1550
0 1550 415 0 415 0 0 210 0 210 -1045 0 -1045 0 0 -210z"/>
<path d="M13080 3730 l0 -1760 205 0 205 0 0 1760 0 1760 -205 0 -205 0 0
-1760z"/>
<path d="M14100 3730 l0 -1760 855 0 855 0 0 210 0 210 -645 0 -645 0 0 1550
0 1550 -210 0 -210 0 0 -1760z"/>
<path d="M16190 3730 l0 -1760 855 0 855 0 0 210 0 210 -645 0 -645 0 0 1550
0 1550 -210 0 -210 0 0 -1760z"/>
<path d="M18290 3730 l0 -1760 205 0 205 0 0 1760 0 1760 -205 0 -205 0 0
-1760z"/>
<path d="M19310 3730 l0 -1760 195 0 195 0 2 1359 3 1360 650 -1360 649 -1359
223 0 223 0 0 1760 0 1760 -195 0 -195 0 -2 -1359 -3 -1358 -649 1358 -649
1359 -224 0 -223 0 0 -1760z"/>
<path d="M2730 1070 l0 -80 14390 0 14390 0 0 80 0 80 -14390 0 -14390 0 0
-80z"/>
</g>
<g transform="translate(0.000000,686.000000) scale(0.100000,-0.100000)"
fill="#a1d100" stroke="none">
<path d="M25390 3740 l0 -1830 410 0 410 0 0 1098 1 1097 550 -1097 551 -1098
454 0 454 0 0 1830 0 1830 -410 0 -410 0 -2 -1095 -3 -1096 -550 1095 -550
1095 -452 1 -453 0 0 -1830z"/>
<path d="M28777 5563 c-12 -12 -8 -2488 4 -2588 64 -522 404 -896 939 -1030
404 -101 844 -57 1183 117 357 183 575 501 627 910 6 49 10 355 10 760 l0 678
309 2 310 3 -317 325 c-174 179 -416 427 -538 552 l-222 228 -538 -553 -538
-552 307 -3 307 -2 0 -674 c0 -751 2 -728 -69 -822 -41 -54 -120 -106 -196
-130 -27 -9 -98 -18 -156 -21 -235 -12 -391 54 -470 199 l-34 63 -5 1270 -5
1270 -451 3 c-248 1 -454 -1 -457 -5z"/>
</g>
</svg>
