<svg id="leaf" viewBox="0 0 193.31 171.37" xmlns="http://www.w3.org/2000/svg">
  <g id="layer1" transform="translate(-225.13 -273.23)" >
      <path
          stroke="#167d16" stroke-width="3.75" fill="#1db954"
          d="m381.57 295.1c-1.7708 18.314-1.575 36.925-4.9421 54.989-3.1333 16.81-6.7883 34.095-15.44 49.053-6.0902 10.53-14.155 20.461-24.719 26.596-23.916 13.887-52.123 5.8352-70.584-13.241-13.902-14.365-19.149-31.903-15.115-50.891 3.451-16.243 17.33-28.331 30.878-37.245 28.595-19.045 64.401-24.085 97.801-28.92l1.0612-0.16839 1.0606-0.17174 0.00001 0.00006z"
      />
      <path
          style="stroke:#167d16;stroke-width:3.75;fill:none"
          d="m371.18 306.96c-92.917 100.28-97.145 104.04-97.145 104.04"
      />
      <path
          style="stroke:#167d16;stroke-width:3.75;fill:none"
          d="m309.42 331.48c5.1414 22.574 19.839 34.544 42.296 37.902"
      />
      <path
          style="stroke:#167d16;stroke-width:3.75;fill:none"
          d="m285.55 350.22c5.9985 26.337 23.146 40.303 49.347 44.221"
      />
      <path
          style="stroke:#167d16;stroke-width:3.75;fill:none"
          d="m269.28 374.7c5.1414 22.574 19.839 34.544 42.296 37.902"
      />
      <path
          style="stroke:#167d16;stroke-width:3.75;fill:none"
          d="m334 317.81c3.5636 15.647 13.751 23.943 29.316 26.271"
      />
      <path
          style="stroke:#167d16;stroke-width:3.75;fill:none"
          d="m212.01 419.12c19.724 12.124 38.559 10.001 56.673-3.6916"
        />
  </g>
</svg>
